<?xml version="1.0" encoding="utf-8"?>
<!-- Generator: Adobe Illustrator 16.0.3, SVG Export Plug-In . SVG Version: 6.00 Build 0)  -->
<!DOCTYPE svg PUBLIC "-//W3C//DTD SVG 1.1//EN" "http://www.w3.org/Graphics/SVG/1.1/DTD/svg11.dtd">
<svg version="1.1" id="Layer_1" xmlns="http://www.w3.org/2000/svg" xmlns:xlink="http://www.w3.org/1999/xlink" x="0px" y="0px"
	 width="610.43px" height="556.419px" viewBox="0 0 610.43 556.419" enable-background="new 0 0 610.43 556.419"
	 xml:space="preserve">
<g>
	<circle fill="#FFFFFF" stroke="#000000" stroke-miterlimit="10" cx="251.813" cy="204.982" r="26.994"/>
	<g>
		<path d="M253.984,209.011c-0.296,0-0.492-0.136-0.588-0.408l-0.6-1.944h-2.016l-0.576,1.764c-0.088,0.416-0.288,0.616-0.6,0.6
			c-0.448,0.008-0.616-0.164-0.504-0.516l2.304-7.176c0.128-0.36,0.28-0.54,0.456-0.54s0.324,0.18,0.444,0.54
			c0.52,1.496,1.22,3.852,2.1,7.068C254.54,208.807,254.4,209.011,253.984,209.011z M251.86,203.083l-0.72,2.532h1.392
			L251.86,203.083z"/>
	</g>
</g>
<g>
	<circle fill="#FFFFFF" stroke="#000000" stroke-miterlimit="10" cx="326.352" cy="320.036" r="26.994"/>
	<g>
		<path d="M325.198,319.217h1.812c0.144-0.008,0.264,0.044,0.36,0.156c0.096,0.112,0.144,0.244,0.144,0.396
			c0,0.32-0.168,0.484-0.504,0.492h-1.812c0.016,1.104,0.02,1.948,0.012,2.532s-0.012,0.884-0.012,0.9c0,0.208-0.05,0.348-0.15,0.42
			c-0.1,0.072-0.234,0.108-0.402,0.108c-0.16,0-0.282-0.058-0.366-0.174c-0.084-0.116-0.126-0.242-0.126-0.378v-6.648
			c0-0.696,0.336-1.044,1.008-1.044h2.808c0.16,0,0.294,0.052,0.402,0.156s0.162,0.232,0.162,0.384c0,0.336-0.188,0.504-0.564,0.504
			h-2.772V319.217z"/>
	</g>
</g>
<g>
	<circle fill="#FFFFFF" stroke="#000000" stroke-miterlimit="10" cx="536.511" cy="528.925" r="26.994"/>
	<g>
		<path d="M537.866,530.46c-0.384,0.342-0.868,0.513-1.452,0.513c-0.527,0-0.968-0.187-1.32-0.562
			c-0.352-0.374-0.527-0.831-0.527-1.37c0-0.556,0.184-1.017,0.552-1.383s0.828-0.55,1.38-0.55c0.6,0,1.074,0.176,1.422,0.525
			c0.348,0.351,0.522,0.828,0.522,1.432C538.442,529.653,538.25,530.118,537.866,530.46z M537.218,528.411
			c-0.185-0.172-0.425-0.258-0.721-0.258s-0.54,0.082-0.732,0.246c-0.191,0.164-0.287,0.389-0.287,0.678
			c0,0.64,0.336,0.959,1.008,0.959s1.008-0.307,1.008-0.924C537.494,528.817,537.402,528.583,537.218,528.411z"/>
	</g>
</g>
<g>
	<circle fill="#FFFFFF" stroke="#000000" stroke-miterlimit="10" cx="536.512" cy="319.928" r="26.994"/>
	<g>
		<path d="M539.091,322c-0.35,0.688-0.84,1.22-1.469,1.596c-0.391,0.2-0.857,0.304-1.398,0.312h-1.458
			c-0.326,0-0.577-0.076-0.753-0.228c-0.191-0.168-0.287-0.44-0.287-0.816v-6c0-0.664,0.344-0.996,1.028-0.996
			c3.003,0,4.553,1.356,4.648,4.068C539.347,320.824,539.244,321.512,539.091,322z M537.411,317.679
			c-0.608-0.511-1.487-0.767-2.64-0.767v5.952h1.283c1.537-0.016,2.305-0.922,2.305-2.719
			C538.382,318.892,538.066,318.07,537.411,317.679z"/>
	</g>
</g>
<g>
	<circle fill="#FFFFFF" stroke="#000000" stroke-miterlimit="10" cx="385.029" cy="167.513" r="26.994"/>
	<g>
		<path d="M373.076,166.694h1.812c0.144-0.008,0.264,0.044,0.36,0.156c0.096,0.112,0.144,0.244,0.144,0.396
			c0,0.32-0.168,0.484-0.504,0.492h-1.812c0.016,1.104,0.02,1.948,0.012,2.532s-0.012,0.884-0.012,0.9c0,0.208-0.05,0.348-0.15,0.42
			c-0.1,0.072-0.234,0.108-0.402,0.108c-0.16,0-0.282-0.058-0.366-0.174c-0.084-0.116-0.126-0.242-0.126-0.378v-6.648
			c0-0.696,0.336-1.044,1.008-1.044h2.808c0.16,0,0.294,0.052,0.402,0.156s0.162,0.232,0.162,0.384c0,0.336-0.188,0.504-0.564,0.504
			h-2.772V166.694z"/>
		<path d="M388.591,171.53c-1.112,0-1.932-0.452-2.46-1.356c-0.424-0.736-0.636-1.704-0.636-2.904c0-1.08,0.26-1.976,0.78-2.688
			c0.592-0.808,1.404-1.212,2.436-1.212c1.032,0,1.82,0.444,2.364,1.332c0.448,0.752,0.672,1.676,0.672,2.772
			C391.748,170.178,390.695,171.53,388.591,171.53z M390.283,165.446c-0.352-0.712-0.876-1.068-1.572-1.068
			c-1.496,0-2.244,1.052-2.244,3.156c0,2.008,0.728,3.012,2.184,3.012c0.76,0,1.312-0.352,1.656-1.056
			c0.264-0.512,0.396-1.196,0.396-2.052C390.703,166.669,390.563,166.006,390.283,165.446z"/>
		<path d="M395.129,165.914c0.199-0.096,0.406-0.156,0.622-0.18c0.654-0.072,1.18-0.028,1.579,0.132
			c0.678,0.272,1.061,0.828,1.148,1.668c0.04,0.304,0.064,0.672,0.072,1.104c0.024,0.48-0.044,0.942-0.204,1.386
			c-0.16,0.444-0.419,0.814-0.778,1.11c-0.423,0.336-0.905,0.504-1.448,0.504c-0.471,0-1.021-0.16-1.651-0.48l0.012,2.748
			c0,0.272-0.17,0.408-0.51,0.408c-0.129,0-0.247-0.036-0.352-0.108c-0.122-0.056-0.182-0.148-0.182-0.276v-7.98
			c0-0.272,0.174-0.396,0.522-0.372c0.356,0.032,0.53,0.16,0.522,0.384l0.012,0.408C394.718,166.162,394.93,166.01,395.129,165.914z
			 M395.128,167.149c-0.127,0.088-0.245,0.176-0.353,0.264c-0.107,0.088-0.205,0.176-0.293,0.264v2.316
			c0.574,0.32,1.044,0.496,1.411,0.528c0.757,0.088,1.259-0.18,1.506-0.804c0.111-0.28,0.171-0.62,0.179-1.02
			c0.016-0.752-0.083-1.264-0.299-1.536c-0.127-0.176-0.311-0.296-0.55-0.36c-0.239-0.056-0.55-0.044-0.933,0.036
			C395.575,166.886,395.352,166.99,395.128,167.149z"/>
	</g>
</g>
<g>
	<circle fill="#FFFFFF" stroke="#000000" stroke-miterlimit="10" cx="174.3" cy="204.982" r="26.994"/>
	<g>
		<path d="M172.871,209.011c-0.296,0-0.492-0.136-0.588-0.408l-0.6-1.944h-2.016l-0.576,1.764c-0.088,0.416-0.288,0.616-0.6,0.6
			c-0.448,0.008-0.616-0.164-0.504-0.516l2.304-7.176c0.128-0.36,0.28-0.54,0.456-0.54s0.324,0.18,0.444,0.54
			c0.52,1.496,1.22,3.852,2.1,7.068C173.427,208.807,173.287,209.011,172.871,209.011z M170.747,203.083l-0.72,2.532h1.392
			L170.747,203.083z"/>
		<path d="M179.254,206.518c-0.384,0.342-0.868,0.513-1.452,0.513c-0.528,0-0.968-0.187-1.32-0.561
			c-0.352-0.375-0.528-0.832-0.528-1.371c0-0.556,0.184-1.017,0.552-1.383c0.368-0.366,0.828-0.549,1.38-0.549
			c0.6,0,1.074,0.175,1.422,0.525c0.348,0.35,0.522,0.827,0.522,1.431C179.831,205.711,179.638,206.176,179.254,206.518z
			 M178.606,204.469c-0.184-0.172-0.424-0.258-0.72-0.258s-0.54,0.082-0.732,0.246s-0.288,0.39-0.288,0.678
			c0,0.64,0.336,0.96,1.008,0.96c0.672,0,1.008-0.308,1.008-0.924C178.882,204.875,178.79,204.641,178.606,204.469z"/>
	</g>
</g>
<g>
	<circle fill="#FFFFFF" stroke="#000000" stroke-miterlimit="10" cx="214.72" cy="269.805" r="26.994"/>
	<g>
		<path d="M209.967,268.986h1.812c0.144-0.008,0.264,0.044,0.36,0.156c0.096,0.112,0.144,0.244,0.144,0.396
			c0,0.32-0.168,0.484-0.504,0.492h-1.812c0.016,1.104,0.02,1.948,0.012,2.532s-0.012,0.884-0.012,0.9c0,0.208-0.05,0.348-0.15,0.42
			c-0.1,0.072-0.234,0.108-0.402,0.108c-0.16,0-0.282-0.058-0.366-0.174c-0.084-0.116-0.126-0.242-0.126-0.378v-6.648
			c0-0.696,0.336-1.044,1.008-1.044h2.808c0.16,0,0.294,0.052,0.402,0.156s0.162,0.232,0.162,0.384c0,0.336-0.188,0.504-0.564,0.504
			h-2.772V268.986z"/>
		<path d="M219.674,271.34c-0.384,0.342-0.868,0.513-1.452,0.513c-0.528,0-0.968-0.187-1.32-0.561
			c-0.352-0.375-0.528-0.832-0.528-1.371c0-0.556,0.184-1.017,0.552-1.383c0.368-0.366,0.828-0.549,1.38-0.549
			c0.6,0,1.074,0.175,1.422,0.525c0.348,0.35,0.522,0.827,0.522,1.431C220.25,270.534,220.058,270.999,219.674,271.34z
			 M219.026,269.292c-0.184-0.172-0.424-0.258-0.72-0.258s-0.54,0.082-0.732,0.246s-0.288,0.39-0.288,0.678
			c0,0.64,0.336,0.96,1.008,0.96c0.672,0,1.008-0.308,1.008-0.924C219.302,269.698,219.21,269.464,219.026,269.292z"/>
	</g>
</g>
<g>
	<circle fill="#FFFFFF" stroke="#000000" stroke-miterlimit="10" cx="326.676" cy="113.525" r="26.994"/>
	<g>
		<path d="M318.323,112.706h1.812c0.144-0.008,0.264,0.044,0.36,0.156c0.096,0.112,0.144,0.244,0.144,0.396
			c0,0.32-0.168,0.484-0.504,0.492h-1.812c0.016,1.104,0.02,1.948,0.012,2.532s-0.012,0.884-0.012,0.9c0,0.208-0.05,0.348-0.15,0.42
			c-0.1,0.072-0.234,0.108-0.402,0.108c-0.16,0-0.282-0.058-0.366-0.174c-0.084-0.116-0.126-0.242-0.126-0.378v-6.648
			c0-0.696,0.336-1.044,1.008-1.044h2.808c0.16,0,0.294,0.052,0.402,0.156s0.162,0.232,0.162,0.384c0,0.336-0.188,0.504-0.564,0.504
			h-2.772V112.706z"/>
		<path d="M328.972,118.31c-0.108,0.088-0.234,0.132-0.378,0.132s-0.268-0.096-0.372-0.288c-0.112-0.2-0.836-1.708-2.172-4.524
			c-1.224-2.648-1.836-4.04-1.836-4.176c0-0.136,0.07-0.254,0.21-0.354c0.14-0.1,0.282-0.15,0.426-0.15
			c0.176,0,0.312,0.08,0.408,0.24c0.088,0.136,0.8,1.656,2.136,4.56c1.24,2.744,1.86,4.148,1.86,4.212
			C329.174,118.105,329.08,118.221,328.972,118.31z"/>
		<path d="M333.009,109.525c-0.048,0.104-0.116,0.198-0.201,0.282c-0.085,0.084-0.18,0.15-0.286,0.198s-0.219,0.072-0.34,0.072
			c-0.211,0-0.414-0.096-0.608-0.288c-0.194-0.192-0.292-0.392-0.292-0.6c0-0.192,0.1-0.39,0.298-0.594
			c0.198-0.204,0.399-0.306,0.602-0.306c0.113,0,0.223,0.026,0.328,0.078c0.105,0.052,0.201,0.12,0.286,0.204
			c0.085,0.084,0.154,0.18,0.207,0.288s0.079,0.218,0.079,0.33C333.082,109.31,333.058,109.421,333.009,109.525z M335.542,113.461
			c-0.136,0.064-0.27,0.132-0.402,0.204c-0.132,0.072-0.266,0.144-0.402,0.216c0.04,0.064,0.248,0.272,0.624,0.624
			c0.328,0.312,0.492,0.52,0.492,0.624l-0.012,0.12c-0.16,0.304-0.328,0.456-0.504,0.456c-0.088,0-0.336-0.192-0.744-0.576
			c-0.152-0.144-0.291-0.276-0.416-0.396s-0.232-0.232-0.322-0.336c-0.113,0.128-0.222,0.254-0.328,0.378
			c-0.105,0.124-0.214,0.254-0.326,0.39c-0.328,0.384-0.56,0.576-0.696,0.576s-0.256-0.066-0.36-0.198
			c-0.104-0.132-0.156-0.266-0.156-0.402c0-0.088,0.152-0.296,0.456-0.624c0.344-0.352,0.532-0.568,0.564-0.648
			c-0.136-0.056-0.276-0.122-0.42-0.198s-0.284-0.158-0.42-0.246c-0.392-0.248-0.588-0.464-0.588-0.648
			c0-0.088,0.032-0.204,0.096-0.348c0.072-0.144,0.156-0.216,0.252-0.216c0.08,0,0.296,0.108,0.648,0.324
			c0.392,0.256,0.636,0.4,0.732,0.432v-1.224c0-0.376,0.166-0.564,0.498-0.564c0.364,0,0.546,0.276,0.546,0.828
			c0,0.072-0.002,0.172-0.006,0.3c-0.004,0.128-0.006,0.212-0.006,0.252s0,0.1,0,0.18c0,0.072,0.004,0.168,0.012,0.288
			c0.112-0.024,0.356-0.152,0.732-0.384c0.344-0.216,0.56-0.324,0.648-0.324c0.128,0,0.236,0.068,0.324,0.204
			c0.072,0.12,0.108,0.252,0.108,0.396C336.166,113.042,335.958,113.221,335.542,113.461z M336.393,109.525
			c-0.049,0.104-0.116,0.198-0.201,0.282c-0.085,0.084-0.181,0.15-0.286,0.198c-0.105,0.048-0.219,0.072-0.34,0.072
			c-0.211,0-0.414-0.096-0.608-0.288c-0.195-0.192-0.292-0.392-0.292-0.6c0-0.192,0.099-0.39,0.298-0.594
			c0.199-0.204,0.399-0.306,0.602-0.306c0.113,0,0.223,0.026,0.328,0.078c0.105,0.052,0.201,0.12,0.286,0.204
			s0.154,0.18,0.207,0.288s0.079,0.218,0.079,0.33C336.466,109.31,336.441,109.421,336.393,109.525z"/>
	</g>
</g>
<g>
	<circle fill="#FFFFFF" stroke="#000000" stroke-miterlimit="10" cx="27.494" cy="320.036" r="26.994"/>
	<g>
		<path d="M19.141,319.217h1.812c0.144-0.008,0.264,0.044,0.36,0.156c0.096,0.112,0.144,0.244,0.144,0.396
			c0,0.32-0.168,0.484-0.504,0.492h-1.812c0.016,1.104,0.02,1.948,0.012,2.532s-0.012,0.884-0.012,0.9c0,0.208-0.05,0.348-0.15,0.42
			c-0.1,0.072-0.234,0.108-0.402,0.108c-0.16,0-0.282-0.058-0.366-0.174c-0.084-0.116-0.126-0.242-0.126-0.378v-6.648
			c0-0.696,0.336-1.044,1.008-1.044h2.808c0.16,0,0.294,0.052,0.402,0.156s0.162,0.232,0.162,0.384c0,0.336-0.188,0.504-0.564,0.504
			h-2.772V319.217z"/>
		<path d="M29.791,324.821c-0.108,0.088-0.234,0.132-0.378,0.132s-0.268-0.096-0.372-0.288c-0.112-0.2-0.836-1.708-2.172-4.524
			c-1.224-2.648-1.836-4.04-1.836-4.176c0-0.136,0.07-0.254,0.21-0.354c0.14-0.1,0.282-0.15,0.426-0.15
			c0.176,0,0.312,0.08,0.408,0.24c0.088,0.136,0.8,1.656,2.136,4.56c1.24,2.744,1.86,4.148,1.86,4.212
			C29.993,324.617,29.898,324.732,29.791,324.821z"/>
		<path d="M36.048,321.571c-0.384,0.342-0.868,0.513-1.452,0.513c-0.528,0-0.968-0.187-1.32-0.561
			c-0.352-0.375-0.528-0.832-0.528-1.371c0-0.556,0.184-1.017,0.552-1.383c0.368-0.366,0.828-0.549,1.38-0.549
			c0.6,0,1.074,0.175,1.422,0.525c0.348,0.35,0.522,0.827,0.522,1.431C36.625,320.765,36.432,321.229,36.048,321.571z M35.4,319.522
			c-0.184-0.172-0.424-0.258-0.72-0.258s-0.54,0.082-0.732,0.246s-0.288,0.39-0.288,0.678c0,0.64,0.336,0.96,1.008,0.96
			c0.672,0,1.008-0.308,1.008-0.924C35.676,319.929,35.584,319.695,35.4,319.522z"/>
	</g>
</g>
<g>
	<circle fill="#FFFFFF" stroke="#000000" stroke-miterlimit="10" cx="112.842" cy="320.036" r="26.994"/>
	<g>
		<path d="M107.813,324.064c-0.296,0-0.492-0.136-0.588-0.408l-0.6-1.944h-2.016l-0.576,1.764c-0.088,0.416-0.288,0.616-0.6,0.6
			c-0.448,0.008-0.616-0.164-0.504-0.516l2.304-7.176c0.128-0.36,0.28-0.54,0.456-0.54s0.324,0.18,0.444,0.54
			c0.52,1.496,1.22,3.852,2.1,7.068C108.369,323.861,108.229,324.064,107.813,324.064z M105.689,318.137l-0.72,2.532h1.392
			L105.689,318.137z"/>
		<path d="M114.197,321.571c-0.384,0.342-0.868,0.513-1.452,0.513c-0.528,0-0.968-0.187-1.32-0.561
			c-0.352-0.375-0.528-0.832-0.528-1.371c0-0.556,0.184-1.017,0.552-1.383c0.368-0.366,0.828-0.549,1.38-0.549
			c0.6,0,1.074,0.175,1.422,0.525c0.348,0.35,0.522,0.827,0.522,1.431C114.773,320.765,114.581,321.229,114.197,321.571z
			 M113.549,319.522c-0.184-0.172-0.424-0.258-0.72-0.258s-0.54,0.082-0.732,0.246s-0.288,0.39-0.288,0.678
			c0,0.64,0.336,0.96,1.008,0.96c0.672,0,1.008-0.308,1.008-0.924C113.825,319.929,113.732,319.695,113.549,319.522z"/>
		<path d="M118.889,319.217h1.812c0.144-0.008,0.264,0.044,0.36,0.156c0.096,0.112,0.144,0.244,0.144,0.396
			c0,0.32-0.168,0.484-0.504,0.492h-1.812c0.016,1.104,0.02,1.948,0.012,2.532s-0.012,0.884-0.012,0.9c0,0.208-0.05,0.348-0.15,0.42
			c-0.1,0.072-0.234,0.108-0.402,0.108c-0.16,0-0.282-0.058-0.366-0.174c-0.084-0.116-0.126-0.242-0.126-0.378v-6.648
			c0-0.696,0.336-1.044,1.008-1.044h2.808c0.16,0,0.294,0.052,0.402,0.156s0.162,0.232,0.162,0.384c0,0.336-0.188,0.504-0.564,0.504
			h-2.772V319.217z"/>
	</g>
</g>
<g>
	<circle fill="#FFFFFF" stroke="#000000" stroke-miterlimit="10" cx="450.855" cy="369.709" r="26.994"/>
	<g>
		<path d="M449.834,371.78c-0.351,0.689-0.84,1.221-1.47,1.597c-0.39,0.2-0.856,0.304-1.398,0.312h-1.458
			c-0.326,0-0.578-0.076-0.752-0.228c-0.191-0.168-0.287-0.44-0.287-0.815v-6c0-0.664,0.343-0.996,1.028-0.996
			c3.003,0,4.553,1.355,4.648,4.067C450.089,370.604,449.986,371.293,449.834,371.78z M448.153,367.46
			c-0.608-0.512-1.488-0.768-2.64-0.768v5.953h1.284c1.536-0.017,2.304-0.923,2.304-2.719
			C449.125,368.673,448.809,367.851,448.153,367.46z"/>
		<path d="M453.588,365.709c-0.048,0.104-0.116,0.198-0.201,0.282s-0.18,0.15-0.286,0.197c-0.105,0.049-0.219,0.072-0.34,0.072
			c-0.211,0-0.414-0.096-0.608-0.287c-0.194-0.193-0.292-0.393-0.292-0.601c0-0.192,0.1-0.39,0.298-0.595
			c0.198-0.203,0.399-0.305,0.602-0.305c0.113,0,0.223,0.025,0.328,0.077s0.201,0.12,0.286,0.204
			c0.085,0.084,0.154,0.18,0.207,0.288s0.079,0.218,0.079,0.33C453.661,365.493,453.637,365.604,453.588,365.709z M456.121,369.646
			c-0.136,0.063-0.27,0.131-0.402,0.203c-0.132,0.072-0.266,0.145-0.402,0.217c0.04,0.063,0.248,0.271,0.624,0.623
			c0.328,0.313,0.492,0.521,0.492,0.625l-0.012,0.119c-0.16,0.305-0.328,0.457-0.504,0.457c-0.088,0-0.336-0.193-0.744-0.576
			c-0.152-0.145-0.291-0.276-0.416-0.396s-0.232-0.232-0.322-0.336c-0.113,0.128-0.222,0.254-0.328,0.378
			c-0.105,0.124-0.214,0.254-0.326,0.39c-0.328,0.385-0.56,0.576-0.696,0.576s-0.256-0.066-0.36-0.197
			c-0.104-0.133-0.156-0.267-0.156-0.402c0-0.088,0.152-0.296,0.456-0.624c0.344-0.353,0.532-0.568,0.564-0.648
			c-0.136-0.056-0.276-0.122-0.42-0.198s-0.284-0.157-0.42-0.246c-0.392-0.247-0.588-0.463-0.588-0.647
			c0-0.088,0.032-0.204,0.096-0.349c0.072-0.144,0.156-0.215,0.252-0.215c0.08,0,0.296,0.107,0.648,0.324
			c0.392,0.256,0.636,0.399,0.732,0.432v-1.225c0-0.375,0.166-0.564,0.498-0.564c0.364,0,0.546,0.277,0.546,0.828
			c0,0.072-0.002,0.173-0.006,0.301c-0.004,0.128-0.006,0.212-0.006,0.252s0,0.1,0,0.18c0,0.072,0.004,0.168,0.012,0.288
			c0.112-0.024,0.356-0.151,0.732-0.384c0.344-0.217,0.56-0.324,0.648-0.324c0.128,0,0.236,0.068,0.324,0.204
			c0.072,0.12,0.108,0.252,0.108,0.396C456.745,369.226,456.537,369.405,456.121,369.646z M456.972,365.709
			c-0.049,0.104-0.116,0.198-0.201,0.282c-0.085,0.084-0.181,0.15-0.286,0.197c-0.105,0.049-0.219,0.072-0.34,0.072
			c-0.211,0-0.414-0.096-0.608-0.287c-0.195-0.193-0.292-0.393-0.292-0.601c0-0.192,0.099-0.39,0.298-0.595
			c0.199-0.203,0.399-0.305,0.602-0.305c0.113,0,0.223,0.025,0.328,0.077c0.105,0.052,0.201,0.12,0.286,0.204
			s0.154,0.18,0.207,0.288s0.079,0.218,0.079,0.33C457.045,365.493,457.021,365.604,456.972,365.709z"/>
	</g>
</g>
<g>
	<circle fill="#FFFFFF" stroke="#000000" stroke-miterlimit="10" cx="450.856" cy="264.697" r="26.994"/>
	<g>
		<path d="M449.836,266.769c-0.351,0.688-0.84,1.22-1.47,1.596c-0.39,0.2-0.856,0.304-1.398,0.312h-1.458
			c-0.326,0-0.578-0.076-0.752-0.228c-0.191-0.168-0.287-0.44-0.287-0.816v-6c0-0.664,0.343-0.996,1.028-0.996
			c3.003,0,4.553,1.356,4.648,4.068C450.091,265.593,449.987,266.281,449.836,266.769z M448.155,262.448
			c-0.608-0.511-1.488-0.767-2.64-0.767v5.952h1.284c1.536-0.016,2.304-0.922,2.304-2.719
			C449.127,263.661,448.811,262.839,448.155,262.448z"/>
		<path d="M455.811,266.232c-0.384,0.342-0.868,0.513-1.452,0.513c-0.528,0-0.968-0.187-1.32-0.561
			c-0.352-0.375-0.528-0.832-0.528-1.371c0-0.556,0.184-1.017,0.552-1.383c0.368-0.366,0.828-0.549,1.38-0.549
			c0.6,0,1.074,0.175,1.422,0.525c0.348,0.35,0.522,0.827,0.522,1.431C456.387,265.425,456.194,265.89,455.811,266.232z
			 M455.163,264.183c-0.184-0.172-0.424-0.258-0.72-0.258s-0.54,0.082-0.732,0.246s-0.288,0.39-0.288,0.678
			c0,0.64,0.336,0.96,1.008,0.96c0.672,0,1.008-0.308,1.008-0.924C455.438,264.589,455.346,264.355,455.163,264.183z"/>
	</g>
</g>
<g>
	<circle fill="#FFFFFF" stroke="#000000" stroke-miterlimit="10" cx="385.028" cy="57.823" r="26.994"/>
	<g>
		<path d="M380.275,57.003h1.812c0.144-0.008,0.264,0.044,0.36,0.156c0.096,0.112,0.144,0.244,0.144,0.396
			c0,0.32-0.168,0.484-0.504,0.492h-1.812c0.016,1.104,0.02,1.948,0.012,2.532s-0.012,0.884-0.012,0.9c0,0.208-0.05,0.348-0.15,0.42
			c-0.1,0.072-0.234,0.108-0.402,0.108c-0.16,0-0.282-0.058-0.366-0.174c-0.084-0.116-0.126-0.242-0.126-0.378v-6.648
			c0-0.696,0.336-1.044,1.008-1.044h2.808c0.16,0,0.294,0.052,0.402,0.156s0.162,0.232,0.162,0.384c0,0.336-0.188,0.504-0.564,0.504
			h-2.772V57.003z"/>
		<path d="M390.924,62.607c-0.108,0.088-0.234,0.132-0.378,0.132s-0.268-0.096-0.372-0.288c-0.112-0.2-0.836-1.708-2.172-4.524
			c-1.224-2.648-1.836-4.04-1.836-4.176c0-0.136,0.07-0.254,0.21-0.354c0.14-0.1,0.282-0.15,0.426-0.15
			c0.176,0,0.312,0.08,0.408,0.24c0.088,0.136,0.8,1.656,2.136,4.56c1.24,2.744,1.86,4.148,1.86,4.212
			C391.126,62.403,391.032,62.519,390.924,62.607z"/>
	</g>
</g>
<g>
	<circle fill="#FFFFFF" stroke="#000000" stroke-miterlimit="10" cx="536.513" cy="459.693" r="26.994"/>
	<g>
		<path d="M531.76,458.874h1.812c0.145-0.009,0.264,0.043,0.36,0.155c0.096,0.112,0.144,0.244,0.144,0.396
			c0,0.32-0.168,0.484-0.504,0.492h-1.812c0.016,1.104,0.02,1.948,0.012,2.532s-0.012,0.884-0.012,0.899
			c0,0.209-0.05,0.349-0.15,0.421c-0.101,0.071-0.233,0.108-0.401,0.108c-0.16,0-0.283-0.059-0.367-0.175s-0.125-0.241-0.125-0.378
			v-6.648c0-0.695,0.336-1.043,1.008-1.043h2.809c0.159,0,0.293,0.052,0.401,0.156c0.108,0.104,0.162,0.231,0.162,0.383
			c0,0.336-0.188,0.504-0.563,0.504h-2.772V458.874z"/>
		<path d="M540.843,463.607c-0.191,0.188-0.439,0.282-0.744,0.282c-0.287,0-0.529-0.098-0.726-0.295
			c-0.196-0.195-0.294-0.441-0.294-0.737c0-0.136,0.027-0.267,0.084-0.39c0.057-0.125,0.13-0.234,0.223-0.33
			c0.092-0.096,0.199-0.174,0.324-0.234c0.123-0.061,0.253-0.09,0.389-0.09c0.145,0,0.278,0.027,0.402,0.084s0.232,0.13,0.324,0.222
			c0.092,0.093,0.166,0.202,0.223,0.33c0.055,0.128,0.084,0.265,0.084,0.408C541.132,463.169,541.036,463.419,540.843,463.607z"/>
	</g>
</g>
<g>
	<g>
		<line fill="none" stroke="#000000" stroke-miterlimit="10" x1="267.373" y1="227.034" x2="309.367" y2="291.791"/>
		<g>
			<polygon points="304.731,291.449 308.694,290.754 310.945,287.419 312.615,296.799 			"/>
		</g>
	</g>
</g>
<g>
	<g>
		<line fill="none" stroke="#000000" stroke-miterlimit="10" x1="276.699" y1="194.507" x2="353.041" y2="175.479"/>
		<g>
			<polygon points="351.211,179.751 351.842,175.777 349.419,172.564 358.833,174.035 			"/>
		</g>
	</g>
</g>
<g>
	<g>
		<line fill="none" stroke="#000000" stroke-miterlimit="10" x1="224.819" y1="204.982" x2="207.264" y2="204.982"/>
		<g>
			<polygon points="210.072,201.279 208.499,204.982 210.072,208.686 201.294,204.982 			"/>
		</g>
	</g>
</g>
<g>
	<g>
		<line fill="none" stroke="#000000" stroke-miterlimit="10" x1="336.035" y1="294.839" x2="371.977" y2="197.771"/>
		<g>
			<polygon points="374.474,201.691 371.548,198.93 367.529,199.119 374.05,192.173 			"/>
		</g>
	</g>
</g>
<g>
	<g>
		<line fill="none" stroke="#000000" stroke-miterlimit="10" x1="302.304" y1="307.778" x2="245.19" y2="282.376"/>
		<g>
			<polygon points="249.261,280.134 246.319,282.878 246.251,286.901 239.735,279.95 			"/>
		</g>
	</g>
</g>
<g>
	<g>
		<line fill="none" stroke="#000000" stroke-miterlimit="10" x1="347.916" y1="336.272" x2="506.571" y2="446.197"/>
		<g>
			<polygon points="502.154,447.642 505.555,445.493 506.372,441.554 511.478,449.597 			"/>
		</g>
	</g>
</g>
<g>
	<g>
		<line fill="none" stroke="#000000" stroke-miterlimit="10" x1="353.346" y1="320.036" x2="503.548" y2="319.932"/>
		<g>
			<polygon points="500.743,323.637 502.313,319.933 500.737,316.23 509.518,319.928 			"/>
		</g>
	</g>
</g>
<g>
	<g>
		<polyline fill="none" stroke="#000000" stroke-miterlimit="10" points="349.083,296.598 456.083,190.661 403.121,84.158 		"/>
		<g>
			<polygon points="353.685,297.254 349.961,295.729 348.474,291.991 344.841,300.798 			"/>
		</g>
		<g>
			<polygon points="407.687,85.023 403.67,85.264 401.055,88.321 400.462,78.813 			"/>
		</g>
	</g>
</g>
<g>
	<g>
		<line fill="none" stroke="#000000" stroke-miterlimit="10" x1="536.509" y1="501.931" x2="536.51" y2="492.657"/>
		<g>
			<polygon points="540.213,495.466 536.51,493.893 532.807,495.466 536.511,486.688 			"/>
		</g>
	</g>
</g>
<g>
	<g>
		<line fill="none" stroke="#000000" stroke-miterlimit="10" x1="511.319" y1="310.233" x2="357.472" y2="310.233"/>
		<g>
			<polygon points="360.28,306.53 358.707,310.233 360.28,313.937 351.502,310.233 			"/>
		</g>
	</g>
</g>
<g>
	<g>
		<line fill="none" stroke="#000000" stroke-miterlimit="10" x1="536.51" y1="292.934" x2="416.229" y2="171.75"/>
		<g>
			<polygon points="420.835,171.135 417.099,172.627 415.579,176.352 412.023,167.513 			"/>
		</g>
	</g>
</g>
<g>
	<g>
		<line fill="none" stroke="#000000" stroke-miterlimit="10" x1="517.467" y1="300.798" x2="481.269" y2="277.06"/>
		<g>
			<polygon points="485.649,275.503 482.302,277.737 481.587,281.696 476.277,273.786 			"/>
		</g>
	</g>
</g>
<g>
	<g>
		<line fill="none" stroke="#000000" stroke-miterlimit="10" x1="536.51" y1="346.922" x2="536.511" y2="426.729"/>
		<g>
			<polygon points="532.808,423.921 536.511,425.494 540.214,423.921 536.511,432.699 			"/>
		</g>
	</g>
</g>
<g>
	<g>
		<line fill="none" stroke="#000000" stroke-miterlimit="10" x1="513.392" y1="333.867" x2="479.447" y2="353.312"/>
		<g>
			<polygon points="480.043,348.702 480.519,352.697 483.725,355.129 474.267,356.278 			"/>
		</g>
	</g>
</g>
<g>
	<g>
		<line fill="none" stroke="#000000" stroke-miterlimit="10" x1="385.027" y1="194.507" x2="343.902" y2="292.251"/>
		<g>
			<polygon points="341.578,288.227 344.381,291.113 348.404,291.099 341.586,297.754 			"/>
		</g>
	</g>
</g>
<g>
	<g>
		<line fill="none" stroke="#000000" stroke-miterlimit="10" x1="174.298" y1="231.977" x2="138.646" y2="300.69"/>
		<g>
			<polygon points="136.652,296.491 139.214,299.593 143.226,299.902 135.896,305.989 			"/>
		</g>
	</g>
</g>
<g>
	<g>
		<line fill="none" stroke="#000000" stroke-miterlimit="10" x1="190.952" y1="282.611" x2="143.286" y2="307.473"/>
		<g>
			<polygon points="144.063,302.891 144.381,306.901 147.488,309.457 137.993,310.233 			"/>
		</g>
	</g>
</g>
<g>
	<g>
		<line fill="none" stroke="#000000" stroke-miterlimit="10" x1="527.888" y1="434.114" x2="527.888" y2="351.043"/>
		<g>
			<polygon points="531.591,353.852 527.888,352.278 524.185,353.852 527.888,345.073 			"/>
		</g>
	</g>
</g>
<g>
	<g>
		<line fill="none" stroke="#000000" stroke-miterlimit="10" x1="509.519" y1="459.693" x2="346.479" y2="345.738"/>
		<g>
			<polygon points="350.903,344.313 347.492,346.446 346.66,350.383 341.586,342.318 			"/>
		</g>
	</g>
</g>
<g>
	<g>
		<line fill="none" stroke="#000000" stroke-miterlimit="10" x1="385.026" y1="84.817" x2="385.027" y2="134.549"/>
		<g>
			<polygon points="381.324,131.741 385.027,133.314 388.73,131.741 385.027,140.519 			"/>
		</g>
	</g>
</g>
<g>
	<g>
		<polyline fill="none" stroke="#000000" stroke-miterlimit="10" points="358.034,57.823 27.494,57.823 27.492,287.072 		"/>
		<g>
			<polygon points="23.789,284.264 27.492,285.837 31.195,284.264 27.492,293.042 			"/>
		</g>
	</g>
</g>
<g>
	<g>
		<line fill="none" stroke="#000000" stroke-miterlimit="10" x1="112.842" y1="57.823" x2="112.84" y2="287.072"/>
		<g>
			<polygon points="109.137,284.264 112.84,285.837 116.543,284.264 112.84,293.042 			"/>
		</g>
	</g>
</g>
<g>
	<g>
		<polyline fill="none" stroke="#000000" stroke-miterlimit="10" points="412.022,57.823 609.93,57.823 609.93,459.693 
			569.477,459.693 		"/>
		<g>
			<polygon points="572.286,455.99 570.712,459.693 572.286,463.396 563.507,459.693 			"/>
		</g>
	</g>
</g>
<g>
	<g>
		<line fill="none" stroke="#000000" stroke-miterlimit="10" x1="365.022" y1="75.946" x2="349.339" y2="89.633"/>
		<g>
			<polygon points="349.02,84.997 350.27,88.821 353.89,90.577 344.841,93.559 			"/>
		</g>
	</g>
</g>
<g>
	<g>
		<line fill="none" stroke="#000000" stroke-miterlimit="10" x1="536.513" y1="57.823" x2="536.51" y2="286.964"/>
		<g>
			<polygon points="532.807,284.155 536.51,285.729 540.213,284.155 536.51,292.934 			"/>
		</g>
	</g>
</g>
<g>
	<g>
		<line fill="none" stroke="#000000" stroke-miterlimit="10" x1="473.125" y1="279.95" x2="508.379" y2="302.747"/>
		<g>
			<polygon points="504.01,304.332 507.341,302.076 508.032,298.112 513.392,305.989 			"/>
		</g>
	</g>
</g>
<g>
	<g>
		<line fill="none" stroke="#000000" stroke-miterlimit="10" x1="425.553" y1="274.113" x2="354.913" y2="303.684"/>
		<g>
			<polygon points="356.073,299.183 356.052,303.207 358.933,306.015 349.406,305.989 			"/>
		</g>
	</g>
</g>
<g>
	<g>
		<line fill="none" stroke="#000000" stroke-miterlimit="10" x1="427.442" y1="356.278" x2="357.14" y2="331.802"/>
		<g>
			<polygon points="361.01,329.229 358.307,332.208 358.575,336.223 351.502,329.839 			"/>
		</g>
	</g>
</g>
<g>
	<g>
		<line fill="none" stroke="#000000" stroke-miterlimit="10" x1="85.848" y1="320.036" x2="60.458" y2="320.036"/>
		<g>
			<polygon points="63.267,316.333 61.693,320.036 63.267,323.739 54.488,320.036 			"/>
		</g>
	</g>
</g>
<g>
	<g>
		<polyline fill="none" stroke="#000000" stroke-miterlimit="10" points="134.406,336.272 456.083,445.311 517.987,347.186 		"/>
		<g>
			<polygon points="519.621,351.537 517.328,348.23 513.357,347.585 521.172,342.137 			"/>
		</g>
	</g>
</g>
<g>
	<g>
		<polyline fill="none" stroke="#000000" stroke-miterlimit="10" points="112.84,347.03 112.842,463.673 503.547,463.673 		"/>
		<g>
			<polygon points="500.739,467.376 502.312,463.673 500.739,459.97 509.517,463.673 			"/>
		</g>
	</g>
</g>
<g>
	<g>
		<polyline fill="none" stroke="#000000" stroke-miterlimit="10" points="119.467,293.864 119.467,113.525 293.712,113.525 		"/>
		<g>
			<polygon points="290.903,117.228 292.477,113.525 290.903,109.822 299.682,113.525 			"/>
		</g>
	</g>
</g>
<g>
	<g>
		<polyline fill="none" stroke="#000000" stroke-miterlimit="10" points="119.467,113.525 119.467,70.754 355.359,70.754 		"/>
		<g>
			<polygon points="352.55,74.458 354.124,70.754 352.55,67.051 361.329,70.754 			"/>
		</g>
	</g>
</g>
<g>
	<g>
		<polyline fill="none" stroke="#000000" stroke-miterlimit="10" points="131.772,300.798 131.772,167.513 352.065,167.513 		"/>
		<g>
			<polygon points="349.257,171.216 350.83,167.513 349.257,163.81 358.035,167.513 			"/>
		</g>
	</g>
</g>
<g>
	<g>
		<line fill="none" stroke="#000000" stroke-miterlimit="10" x1="52.645" y1="310.233" x2="81.722" y2="310.233"/>
		<g>
			<polygon points="78.913,313.937 80.486,310.233 78.913,306.53 87.691,310.233 			"/>
		</g>
	</g>
</g>
<g>
	<g>
		<polyline fill="none" stroke="#000000" stroke-miterlimit="10" points="300.576,120.427 124.723,120.427 124.723,290.452 		"/>
		<g>
			<polygon points="121.02,287.644 124.723,289.217 128.426,287.644 124.723,296.422 			"/>
		</g>
	</g>
</g>
<g>
	<path fill="#FFFFFF" d="M95.223,340.478c0,0-24.938,9.566-14.287,18.442S95.223,340.478,95.223,340.478z"/>
	<g>
		<path fill="none" stroke="#000000" stroke-miterlimit="10" d="M95.223,340.478c0,0-24.938,9.566-14.287,18.442
			c7.387,6.156,11.4-5.099,13.166-12.574"/>
		<g>
			<polygon points="97.109,349.817 93.792,347.54 89.85,348.346 95.223,340.478 			"/>
		</g>
	</g>
</g>
<g>
	<path fill="#FFFFFF" d="M326.35,347.03c0,0-11.979,22.679,0.002,22.679S326.35,347.03,326.35,347.03z"/>
	<g>
		<path fill="none" stroke="#000000" stroke-miterlimit="10" d="M326.35,347.03c0,0-11.979,22.679,0.002,22.679
			c8.166,0,5.2-10.534,2.482-17.244"/>
		<g>
			<polygon points="333.303,353.544 329.28,353.612 326.537,356.556 326.35,347.03 			"/>
		</g>
	</g>
</g>
<g>
	<path fill="#FFFFFF" d="M563.506,319.928c0,0,23.938-12.957,23.938,0S563.506,319.928,563.506,319.928z"/>
	<g>
		<path fill="none" stroke="#000000" stroke-miterlimit="10" d="M563.506,319.928c0,0,23.938-12.957,23.938,0
			c0,8.971-11.475,5.52-18.535,2.547"/>
		<g>
			<polygon points="573.029,320.22 570.056,322.931 569.943,326.952 563.506,319.928 			"/>
		</g>
	</g>
</g>
<g>
	<path fill="#FFFFFF" d="M385.026,30.829c0,0-20.3-30.329,0-30.329S385.026,30.829,385.026,30.829z"/>
	<g>
		<path fill="none" stroke="#000000" stroke-miterlimit="10" d="M385.026,30.829c0,0-20.3-30.329,0-30.329
			c15.001,0,7.832,16.561,3.067,25.208"/>
		<g>
			<polygon points="386.259,21.381 388.662,24.608 392.653,25.119 385.026,30.829 			"/>
		</g>
	</g>
</g>
<g>
	<g>
		<line fill="none" stroke="#000000" stroke-miterlimit="10" x1="299.357" y1="221.21" x2="283.322" y2="214.542"/>
		<g>
			<polygon points="287.337,212.201 284.462,215.017 284.493,219.04 277.81,212.25 			"/>
		</g>
	</g>
</g>
<g>
	<g>
		<line fill="none" stroke="#000000" stroke-miterlimit="10" x1="285.208" y1="345.073" x2="297.522" y2="335.869"/>
		<g>
			<polygon points="297.49,340.517 296.533,336.608 293.056,334.584 302.304,332.295 			"/>
		</g>
	</g>
</g>
<g>
	<g>
		<line fill="none" stroke="#000000" stroke-miterlimit="10" x1="469.231" y1="528.925" x2="503.547" y2="528.925"/>
		<g>
			<polygon points="500.739,532.628 502.312,528.925 500.739,525.222 509.517,528.925 			"/>
		</g>
	</g>
</g>
<g>
	<g>
		<line fill="none" stroke="#000000" stroke-miterlimit="10" x1="575.476" y1="358.37" x2="560.124" y2="342.919"/>
		<g>
			<polygon points="564.73,342.301 560.994,343.795 559.476,347.521 555.916,338.684 			"/>
		</g>
	</g>
</g>
<g>
	<g>
		<line fill="none" stroke="#000000" stroke-miterlimit="10" x1="405.125" y1="39.807" x2="416.416" y2="28.907"/>
		<g>
			<polygon points="416.967,33.522 415.527,29.765 411.823,28.193 420.711,24.761 			"/>
		</g>
	</g>
</g>
<g>
	<g>
		<line fill="none" stroke="#000000" stroke-miterlimit="10" x1="311.179" y1="342.364" x2="303.223" y2="351.729"/>
		<g>
			<polygon points="302.219,347.19 304.022,350.787 307.863,351.986 299.357,356.278 			"/>
		</g>
	</g>
</g>
<g>
	<g>
		<line fill="none" stroke="#000000" stroke-miterlimit="10" x1="555.916" y1="301.171" x2="565.751" y2="287.461"/>
		<g>
			<polygon points="567.124,291.902 565.032,288.465 561.106,287.584 569.232,282.611 			"/>
		</g>
	</g>
</g>
<g>
	<g>
		<line fill="none" stroke="#000000" stroke-miterlimit="10" x1="122.933" y1="345.073" x2="133.433" y2="368.251"/>
		<g>
			<polygon points="128.9,367.221 132.923,367.125 135.647,364.164 135.896,373.688 			"/>
		</g>
	</g>
</g>
<g>
</g>
<g>
</g>
<g>
</g>
<g>
</g>
<g>
</g>
<g>
</g>
<g>
</g>
</svg>
