<?xml version="1.0" encoding="utf-8"?>
<!-- Generator: Adobe Illustrator 16.0.3, SVG Export Plug-In . SVG Version: 6.00 Build 0)  -->
<!DOCTYPE svg PUBLIC "-//W3C//DTD SVG 1.1//EN" "http://www.w3.org/Graphics/SVG/1.1/DTD/svg11.dtd">
<svg version="1.1" id="Layer_1" xmlns="http://www.w3.org/2000/svg" xmlns:xlink="http://www.w3.org/1999/xlink" x="0px" y="0px"
	 width="385.525px" height="359.712px" viewBox="0 0 385.525 359.712" enable-background="new 0 0 385.525 359.712"
	 xml:space="preserve">
<g>
	<circle fill="#FFFFFF" stroke="#000000" stroke-miterlimit="10" cx="157.843" cy="179.611" r="26.994"/>
	<g>
		<path d="M147.006,183.627c-1.112,0-1.932-0.452-2.46-1.356c-0.424-0.736-0.636-1.704-0.636-2.904c0-1.08,0.26-1.976,0.78-2.688
			c0.592-0.808,1.404-1.212,2.436-1.212c1.032,0,1.82,0.444,2.364,1.332c0.448,0.752,0.672,1.676,0.672,2.772
			C150.163,182.275,149.11,183.627,147.006,183.627z M148.698,177.543c-0.352-0.712-0.876-1.068-1.572-1.068
			c-1.496,0-2.244,1.052-2.244,3.156c0,2.008,0.728,3.012,2.184,3.012c0.76,0,1.312-0.352,1.656-1.056
			c0.264-0.512,0.396-1.196,0.396-2.052C149.118,178.767,148.979,178.104,148.698,177.543z"/>
		<path d="M153.544,178.011c0.199-0.096,0.406-0.156,0.622-0.18c0.654-0.072,1.18-0.028,1.579,0.132
			c0.678,0.272,1.061,0.828,1.148,1.668c0.04,0.304,0.064,0.672,0.072,1.104c0.024,0.48-0.044,0.942-0.204,1.386
			c-0.16,0.444-0.419,0.814-0.778,1.11c-0.423,0.336-0.905,0.504-1.448,0.504c-0.471,0-1.021-0.16-1.651-0.48l0.012,2.748
			c0,0.272-0.17,0.408-0.51,0.408c-0.129,0-0.247-0.036-0.352-0.108c-0.122-0.056-0.182-0.148-0.182-0.276v-7.98
			c0-0.272,0.174-0.396,0.522-0.372c0.356,0.032,0.53,0.16,0.522,0.384l0.012,0.408
			C153.133,178.259,153.345,178.107,153.544,178.011z M153.543,179.247c-0.127,0.088-0.245,0.176-0.353,0.264
			c-0.107,0.088-0.205,0.176-0.293,0.264v2.316c0.574,0.32,1.044,0.496,1.411,0.528c0.757,0.088,1.259-0.18,1.506-0.804
			c0.111-0.28,0.171-0.62,0.179-1.02c0.016-0.752-0.083-1.264-0.299-1.536c-0.127-0.176-0.311-0.296-0.55-0.36
			c-0.239-0.056-0.55-0.044-0.933,0.036C153.99,178.983,153.767,179.087,153.543,179.247z"/>
		<path d="M163.03,181.251h-3.117c0.032,0.912,0.569,1.368,1.612,1.368c0.326,0,0.619-0.02,0.877-0.06
			c0.259-0.04,0.611-0.164,1.057-0.372c0.175-0.024,0.303,0.063,0.382,0.259c0.08,0.197-0.012,0.422-0.275,0.676
			c-0.47,0.36-1.182,0.54-2.138,0.54c-0.9,0-1.577-0.3-2.03-0.9c-0.406-0.536-0.609-1.224-0.609-2.064
			c0-0.888,0.23-1.592,0.692-2.112c0.478-0.544,1.099-0.816,1.863-0.816c1.672,0,2.508,0.928,2.508,2.784
			C163.854,181.02,163.58,181.251,163.03,181.251z M161.214,178.767c-0.296,0-0.582,0.138-0.858,0.414
			c-0.276,0.275-0.422,0.618-0.438,1.027h2.892C162.762,179.247,162.23,178.767,161.214,178.767z"/>
		<path d="M170.034,183.303v-3.42c0-0.376-0.072-0.644-0.216-0.804c-0.152-0.176-0.412-0.264-0.78-0.264
			c-0.408,0-0.808,0.16-1.2,0.48c-0.408,0.328-0.612,0.692-0.612,1.092v2.868c0.008,0.304-0.16,0.456-0.504,0.456
			c-0.128,0-0.25-0.046-0.366-0.138c-0.116-0.092-0.174-0.202-0.174-0.33v-4.932c0-0.136,0.071-0.26,0.215-0.372
			c0.127-0.096,0.263-0.144,0.406-0.144c0.175,0,0.302,0.088,0.382,0.264c0.024,0.08,0.048,0.16,0.072,0.24s0.052,0.16,0.083,0.24
			v-0.012c0.104-0.144,0.354-0.3,0.752-0.468c0.39-0.16,0.677-0.24,0.86-0.24c0.756,0,1.31,0.192,1.66,0.576
			c0.311,0.352,0.466,0.92,0.466,1.704v3.204c0,0.256-0.172,0.384-0.516,0.384C170.21,183.688,170.034,183.56,170.034,183.303z"/>
	</g>
</g>
<g>
	<circle fill="#FFFFFF" stroke="#000000" stroke-miterlimit="10" cx="215.496" cy="280.114" r="26.995"/>
	<g>
		<path d="M214.307,284.095c-0.313,0-0.563-0.097-0.75-0.288s-0.282-0.443-0.282-0.756v-5.964c0-0.328,0.084-0.58,0.252-0.757
			c0.168-0.176,0.425-0.268,0.769-0.275h2.892c0.312,0,0.468,0.176,0.468,0.527c0,0.345-0.152,0.517-0.455,0.517h-2.881v2.256h1.872
			c0.288,0,0.433,0.185,0.433,0.552c0,0.192-0.041,0.322-0.121,0.391s-0.199,0.102-0.359,0.102h-1.824v2.652h2.904
			c0.32,0.176,0.48,0.348,0.48,0.516c0,0.353-0.16,0.528-0.48,0.528H214.307z"/>
	</g>
</g>
<g>
	<circle fill="#FFFFFF" stroke="#000000" stroke-miterlimit="10" cx="157.841" cy="98.542" r="26.995"/>
	<g>
		<path d="M152.428,98.275c-0.344,1.072-0.622,1.928-0.834,2.568c-0.212,0.64-0.362,1.072-0.45,1.296
			c-0.128,0.344-0.304,0.516-0.528,0.516c-0.216,0-0.388-0.18-0.516-0.54c-0.28-0.776-0.712-2.048-1.296-3.816
			c-0.688-2.104-1.032-3.272-1.032-3.504c0.12-0.264,0.324-0.396,0.612-0.396c0.312,0,0.56,0.288,0.744,0.864l1.488,4.452
			l1.512-4.416c0.232-0.624,0.508-0.936,0.828-0.936c0.272,0,0.452,0.128,0.54,0.384C153.496,94.867,153.14,96.043,152.428,98.275z"
			/>
		<path d="M159.832,95.851c-0.064,0.048-0.144,0.06-0.24,0.036c-0.104-0.016-0.204-0.043-0.3-0.084
			c-0.096-0.04-0.192-0.088-0.288-0.144c-0.232-0.136-0.456-0.204-0.672-0.204c-0.176,0-0.304,0.051-0.384,0.154
			c-0.16,0.149-0.248,0.433-0.264,0.851c0,0.063,0,0.142,0,0.236c0,0.094-0.004,0.209-0.012,0.343h1.32
			c0.144,0,0.26,0.092,0.348,0.276c0.016,0.04,0.028,0.082,0.036,0.126c0.008,0.044,0.016,0.09,0.024,0.138
			c0.008,0.128-0.016,0.252-0.072,0.372c-0.064,0.088-0.164,0.132-0.3,0.132h-1.356v3.948c0.016,0,0.016,0.008,0,0.024
			c0.008,0.216-0.042,0.368-0.147,0.456c-0.107,0.088-0.229,0.132-0.369,0.132c-0.352-0.008-0.528-0.212-0.528-0.612v-3.948h-0.564
			c-0.128,0-0.224-0.044-0.288-0.132c-0.072-0.12-0.108-0.244-0.108-0.372s0.036-0.248,0.108-0.36c0.056-0.12,0.152-0.18,0.288-0.18
			h0.564c0.008-0.256,0.014-0.452,0.018-0.588c0.004-0.136,0.006-0.216,0.006-0.24c0-0.336,0.037-0.624,0.109-0.864
			c0.073-0.24,0.21-0.456,0.413-0.648c0.194-0.184,0.476-0.28,0.846-0.288c0.488-0.016,0.9,0.049,1.236,0.196
			c0.488,0.213,0.736,0.455,0.744,0.725C160.016,95.542,159.959,95.715,159.832,95.851z"/>
		<path d="M167.14,101.851c-0.464,0.536-1.145,0.804-2.04,0.804c-0.896,0-1.592-0.271-2.088-0.816
			c-0.472-0.536-0.708-1.256-0.708-2.16c0-0.88,0.224-1.588,0.672-2.124c0.48-0.56,1.156-0.84,2.028-0.84
			c0.904,0,1.604,0.276,2.1,0.828c0.448,0.52,0.672,1.244,0.672,2.172C167.776,100.619,167.564,101.331,167.14,101.851z
			 M166.24,98.395c-0.312-0.392-0.728-0.588-1.248-0.588c-0.504,0-0.904,0.192-1.2,0.576c-0.272,0.344-0.408,0.776-0.408,1.296
			c0,0.544,0.168,0.996,0.504,1.356c0.352,0.352,0.792,0.528,1.32,0.528c0.464,0,0.832-0.196,1.104-0.588
			c0.24-0.344,0.36-0.76,0.36-1.248C166.672,99.199,166.528,98.755,166.24,98.395z"/>
	</g>
</g>
<g>
	<circle fill="#FFFFFF" stroke="#000000" stroke-miterlimit="10" cx="27.495" cy="98.543" r="26.995"/>
	<g>
		<path d="M22.083,98.275c-0.344,1.072-0.622,1.928-0.834,2.568c-0.212,0.64-0.362,1.072-0.45,1.296
			c-0.128,0.344-0.304,0.516-0.528,0.516c-0.216,0-0.388-0.18-0.516-0.54c-0.28-0.776-0.712-2.048-1.296-3.816
			c-0.688-2.104-1.032-3.272-1.032-3.504c0.12-0.264,0.324-0.396,0.612-0.396c0.312,0,0.56,0.288,0.744,0.864l1.488,4.452
			l1.512-4.416c0.232-0.624,0.508-0.936,0.828-0.936c0.272,0,0.452,0.128,0.54,0.384C23.151,94.867,22.795,96.043,22.083,98.275z"/>
		<path d="M30.362,99.175h-3.516c0.52,0.408,0.78,0.744,0.78,1.008c0,0.104-0.042,0.188-0.126,0.252s-0.178,0.096-0.282,0.096
			c-0.064,0-0.32-0.176-0.768-0.528c-0.488-0.392-0.772-0.608-0.852-0.648c-0.136-0.048-0.27-0.096-0.402-0.144
			c-0.132-0.048-0.266-0.096-0.402-0.144c-0.424-0.16-0.636-0.292-0.636-0.396c0-0.128,0.216-0.26,0.648-0.396
			c0.136-0.04,0.276-0.08,0.42-0.12c0.144-0.04,0.284-0.08,0.42-0.12c0.192-0.096,0.504-0.344,0.936-0.744
			c0.368-0.344,0.648-0.54,0.84-0.588c0.08,0.048,0.144,0.172,0.192,0.372c-0.144,0.448-0.4,0.8-0.768,1.056h3.552
			c0.288,0,0.432,0.18,0.432,0.54S30.674,99.199,30.362,99.175z"/>
		<path d="M36.483,98.275c-0.344,1.072-0.622,1.928-0.834,2.568c-0.212,0.64-0.362,1.072-0.45,1.296
			c-0.128,0.344-0.304,0.516-0.528,0.516c-0.216,0-0.388-0.18-0.516-0.54c-0.28-0.776-0.712-2.048-1.296-3.816
			c-0.688-2.104-1.032-3.272-1.032-3.504c0.12-0.264,0.324-0.396,0.612-0.396c0.312,0,0.56,0.288,0.744,0.864l1.488,4.452
			l1.512-4.416c0.232-0.624,0.508-0.936,0.828-0.936c0.272,0,0.452,0.128,0.54,0.384C37.551,94.867,37.195,96.043,36.483,98.275z"/>
	</g>
</g>
<g>
	<circle fill="#FFFFFF" stroke="#000000" stroke-miterlimit="10" cx="279.678" cy="228.579" r="26.995"/>
	<g>
		<path d="M271.289,232.56c-0.312,0-0.562-0.097-0.75-0.288c-0.188-0.191-0.281-0.443-0.281-0.756v-5.964
			c0-0.328,0.084-0.58,0.252-0.757c0.168-0.176,0.424-0.268,0.768-0.275h2.893c0.312,0,0.467,0.176,0.467,0.527
			c0,0.345-0.151,0.517-0.455,0.517h-2.881v2.256h1.873c0.287,0,0.432,0.185,0.432,0.552c0,0.192-0.04,0.322-0.12,0.391
			s-0.2,0.102-0.36,0.102h-1.824v2.652h2.904c0.32,0.176,0.48,0.348,0.48,0.516c0,0.353-0.16,0.528-0.48,0.528H271.289z"/>
		<path d="M280.571,228.252c-0.052,0.119-0.122,0.228-0.21,0.324c-0.088,0.096-0.192,0.172-0.313,0.228
			c-0.119,0.056-0.244,0.084-0.371,0.084c-0.272,0-0.503-0.099-0.69-0.294c-0.188-0.196-0.282-0.438-0.282-0.727
			c0-0.127,0.025-0.256,0.078-0.384c0.052-0.128,0.121-0.239,0.21-0.336c0.088-0.096,0.19-0.174,0.306-0.233
			c0.116-0.061,0.242-0.09,0.379-0.09c0.135,0,0.262,0.029,0.377,0.09c0.116,0.06,0.219,0.138,0.307,0.233
			c0.088,0.097,0.158,0.206,0.21,0.33s0.077,0.254,0.077,0.39C280.648,228.004,280.623,228.131,280.571,228.252z M280.337,231.804
			c-0.2,0.2-0.42,0.3-0.659,0.3c-0.121,0-0.24-0.025-0.36-0.078c-0.12-0.052-0.224-0.123-0.312-0.216
			c-0.089-0.092-0.16-0.196-0.217-0.312c-0.057-0.116-0.084-0.234-0.084-0.354c0-0.231,0.104-0.46,0.313-0.685
			c0.199-0.223,0.42-0.336,0.66-0.336c0.135,0,0.262,0.029,0.377,0.084c0.116,0.057,0.219,0.133,0.307,0.229s0.158,0.206,0.21,0.33
			s0.077,0.25,0.077,0.378C280.648,231.375,280.545,231.596,280.337,231.804z"/>
		<path d="M285.689,232.56c-0.313,0-0.563-0.097-0.75-0.288s-0.282-0.443-0.282-0.756v-5.964c0-0.328,0.084-0.58,0.252-0.757
			c0.168-0.176,0.425-0.268,0.769-0.275h2.892c0.312,0,0.468,0.176,0.468,0.527c0,0.345-0.152,0.517-0.455,0.517h-2.881v2.256h1.872
			c0.288,0,0.433,0.185,0.433,0.552c0,0.192-0.041,0.322-0.121,0.391s-0.199,0.102-0.359,0.102h-1.824v2.652h2.904
			c0.32,0.176,0.48,0.348,0.48,0.516c0,0.353-0.16,0.528-0.48,0.528H285.689z"/>
	</g>
</g>
<g>
	<circle fill="#FFFFFF" stroke="#000000" stroke-miterlimit="10" cx="27.495" cy="27.494" r="26.994"/>
	<g>
		<path d="M22.082,27.227c-0.344,1.072-0.622,1.928-0.834,2.568c-0.212,0.64-0.362,1.072-0.45,1.296
			c-0.128,0.344-0.304,0.516-0.528,0.516c-0.216,0-0.388-0.18-0.516-0.54c-0.28-0.776-0.712-2.048-1.296-3.816
			c-0.688-2.104-1.032-3.272-1.032-3.504c0.12-0.264,0.324-0.396,0.612-0.396c0.312,0,0.56,0.288,0.744,0.864l1.488,4.452
			l1.512-4.416c0.232-0.624,0.508-0.936,0.828-0.936c0.272,0,0.452,0.128,0.54,0.384C23.15,23.819,22.794,24.995,22.082,27.227z"/>
		<path d="M30.361,28.126h-3.516c0.52,0.408,0.78,0.744,0.78,1.008c0,0.104-0.042,0.188-0.126,0.252s-0.178,0.096-0.282,0.096
			c-0.064,0-0.32-0.176-0.768-0.528c-0.488-0.392-0.772-0.608-0.852-0.648c-0.136-0.048-0.27-0.096-0.402-0.144
			c-0.132-0.048-0.266-0.096-0.402-0.144c-0.424-0.16-0.636-0.292-0.636-0.396c0-0.128,0.216-0.26,0.648-0.396
			c0.136-0.04,0.276-0.08,0.42-0.12c0.144-0.04,0.284-0.08,0.42-0.12c0.192-0.096,0.504-0.344,0.936-0.744
			c0.368-0.344,0.648-0.54,0.84-0.588c0.08,0.048,0.144,0.172,0.192,0.372c-0.144,0.448-0.4,0.8-0.768,1.056h3.552
			c0.288,0,0.432,0.18,0.432,0.54S30.673,28.15,30.361,28.126z"/>
		<path d="M32.648,30.733c-0.348-0.495-0.522-0.993-0.522-1.496v-5.408c0-0.151,0.014-0.263,0.042-0.335
			c0.028-0.072,0.066-0.12,0.114-0.144s0.108-0.032,0.18-0.024c0.072,0.008,0.152,0.012,0.24,0.012c0.312,0,0.468,0.164,0.468,0.491
			V28.9c0,0.558,0.13,0.965,0.39,1.22c0.26,0.255,0.626,0.382,1.098,0.382c0.52,0,0.91-0.104,1.17-0.311
			c0.26-0.208,0.39-0.638,0.39-1.292v-4.999c0-0.12,0.044-0.241,0.132-0.365s0.192-0.186,0.312-0.186c0.16,0,0.3,0.048,0.42,0.144
			c0.12,0.096,0.18,0.219,0.18,0.371v5.372c0,1.492-0.864,2.237-2.592,2.237C33.669,31.475,32.996,31.228,32.648,30.733z"/>
	</g>
</g>
<g>
	<circle fill="#FFFFFF" stroke="#000000" stroke-miterlimit="10" cx="103.566" cy="295.974" r="26.995"/>
	<g>
		<path d="M90.72,299.213c-0.348-0.495-0.522-0.994-0.522-1.496v-5.408c0-0.151,0.014-0.264,0.042-0.335
			c0.028-0.071,0.066-0.12,0.114-0.144s0.108-0.031,0.18-0.023c0.072,0.008,0.152,0.012,0.24,0.012c0.312,0,0.468,0.163,0.468,0.49
			v5.07c0,0.559,0.13,0.965,0.39,1.221c0.26,0.255,0.626,0.383,1.098,0.383c0.52,0,0.91-0.104,1.17-0.311
			c0.26-0.208,0.39-0.639,0.39-1.293v-4.998c0-0.12,0.044-0.242,0.132-0.365s0.192-0.186,0.312-0.186c0.16,0,0.3,0.048,0.42,0.144
			c0.12,0.096,0.18,0.22,0.18,0.371v5.372c0,1.492-0.864,2.237-2.592,2.237C91.741,299.954,91.067,299.707,90.72,299.213z"/>
		<path d="M102.833,296.605h-3.516c0.52,0.408,0.78,0.744,0.78,1.009c0,0.104-0.042,0.188-0.126,0.252s-0.178,0.096-0.282,0.096
			c-0.064,0-0.32-0.176-0.768-0.528c-0.488-0.392-0.772-0.607-0.852-0.647c-0.136-0.048-0.27-0.097-0.402-0.144
			c-0.132-0.049-0.266-0.097-0.402-0.145c-0.424-0.16-0.636-0.292-0.636-0.396c0-0.127,0.216-0.26,0.648-0.396
			c0.136-0.04,0.276-0.079,0.42-0.12c0.144-0.039,0.284-0.08,0.42-0.119c0.192-0.097,0.504-0.345,0.936-0.744
			c0.368-0.344,0.648-0.541,0.84-0.588c0.08,0.047,0.144,0.172,0.192,0.371c-0.144,0.448-0.4,0.801-0.768,1.057h3.552
			c0.288,0,0.432,0.18,0.432,0.539C103.301,296.462,103.145,296.63,102.833,296.605z"/>
		<path d="M106.014,295.154h1.812c0.144-0.008,0.264,0.044,0.36,0.156c0.096,0.111,0.144,0.244,0.144,0.396
			c0,0.32-0.168,0.484-0.504,0.492h-1.812c0.016,1.104,0.02,1.948,0.012,2.532s-0.012,0.884-0.012,0.899
			c0,0.208-0.05,0.349-0.15,0.421c-0.1,0.071-0.234,0.107-0.402,0.107c-0.16,0-0.282-0.059-0.366-0.174
			c-0.084-0.116-0.126-0.242-0.126-0.379v-6.647c0-0.696,0.336-1.044,1.008-1.044h2.808c0.16,0,0.294,0.053,0.402,0.156
			s0.162,0.232,0.162,0.384c0,0.336-0.188,0.504-0.564,0.504h-2.772V295.154z"/>
		<path d="M115.953,297.614h-3.117c0.032,0.911,0.569,1.368,1.612,1.368c0.326,0,0.619-0.02,0.877-0.061
			c0.259-0.039,0.611-0.164,1.057-0.371c0.175-0.025,0.303,0.063,0.382,0.259c0.08,0.196-0.012,0.423-0.275,0.677
			c-0.47,0.359-1.182,0.539-2.138,0.539c-0.9,0-1.577-0.299-2.03-0.899c-0.406-0.536-0.609-1.224-0.609-2.063
			c0-0.889,0.23-1.592,0.692-2.112c0.478-0.544,1.099-0.815,1.863-0.815c1.672,0,2.508,0.928,2.508,2.783
			C116.777,297.383,116.502,297.614,115.953,297.614z M114.137,295.13c-0.296,0-0.582,0.138-0.858,0.413
			c-0.276,0.275-0.422,0.618-0.438,1.027h2.892C115.685,295.609,115.153,295.13,114.137,295.13z"/>
	</g>
</g>
<g>
	<circle fill="#FFFFFF" stroke="#000000" stroke-miterlimit="10" cx="293.678" cy="98.542" r="26.995"/>
	<g>
		<path d="M284.664,98.274c-0.344,1.072-0.621,1.928-0.834,2.568c-0.212,0.64-0.361,1.072-0.449,1.296
			c-0.129,0.344-0.305,0.516-0.528,0.516c-0.216,0-0.388-0.18-0.517-0.54c-0.279-0.776-0.712-2.048-1.295-3.816
			c-0.689-2.104-1.033-3.272-1.033-3.504c0.121-0.264,0.324-0.396,0.613-0.396c0.311,0,0.559,0.288,0.743,0.864l1.488,4.452
			l1.512-4.416c0.231-0.624,0.508-0.936,0.828-0.936c0.272,0,0.452,0.128,0.54,0.384C285.732,94.867,285.377,96.042,284.664,98.274z
			"/>
		<path d="M292.943,99.174h-3.516c0.521,0.408,0.78,0.744,0.78,1.008c0,0.104-0.042,0.188-0.126,0.252s-0.178,0.096-0.281,0.096
			c-0.064,0-0.32-0.176-0.769-0.528c-0.488-0.392-0.772-0.608-0.853-0.648c-0.136-0.048-0.27-0.096-0.402-0.144
			c-0.131-0.048-0.266-0.096-0.401-0.144c-0.424-0.16-0.636-0.292-0.636-0.396c0-0.128,0.216-0.26,0.648-0.396
			c0.135-0.04,0.275-0.08,0.42-0.12c0.144-0.04,0.283-0.08,0.42-0.12c0.191-0.096,0.504-0.344,0.936-0.744
			c0.367-0.344,0.648-0.54,0.84-0.588c0.08,0.048,0.145,0.172,0.192,0.372c-0.144,0.448-0.4,0.8-0.769,1.056h3.553
			c0.287,0,0.432,0.18,0.432,0.54S293.256,99.198,292.943,99.174z"/>
		<path d="M296.125,97.723h1.811c0.145-0.008,0.265,0.044,0.361,0.156c0.096,0.112,0.144,0.244,0.144,0.396
			c0,0.32-0.168,0.484-0.505,0.492h-1.811c0.016,1.104,0.02,1.948,0.012,2.532s-0.012,0.884-0.012,0.9
			c0,0.208-0.051,0.348-0.15,0.42c-0.101,0.072-0.234,0.108-0.402,0.108c-0.16,0-0.282-0.058-0.366-0.174
			c-0.084-0.116-0.126-0.242-0.126-0.378v-6.648c0-0.696,0.336-1.044,1.008-1.044h2.809c0.16,0,0.294,0.052,0.402,0.156
			c0.107,0.104,0.162,0.232,0.162,0.384c0,0.336-0.189,0.504-0.564,0.504h-2.771V97.723z"/>
		<path d="M306.064,100.183h-3.117c0.031,0.912,0.568,1.368,1.611,1.368c0.326,0,0.619-0.02,0.878-0.06
			c0.259-0.04,0.611-0.164,1.058-0.372c0.175-0.024,0.303,0.063,0.382,0.259c0.08,0.197-0.012,0.422-0.274,0.676
			c-0.471,0.36-1.183,0.54-2.139,0.54c-0.899,0-1.576-0.3-2.029-0.9c-0.406-0.536-0.609-1.224-0.609-2.064
			c0-0.888,0.23-1.592,0.692-2.112c0.478-0.544,1.099-0.816,1.863-0.816c1.672,0,2.509,0.928,2.509,2.784
			C306.889,99.951,306.613,100.183,306.064,100.183z M304.248,97.698c-0.296,0-0.582,0.138-0.857,0.414
			c-0.277,0.275-0.423,0.618-0.438,1.027h2.892C305.796,98.178,305.264,97.698,304.248,97.698z"/>
	</g>
</g>
<g>
	<circle fill="#FFFFFF" stroke="#000000" stroke-miterlimit="10" cx="299.672" cy="307.422" r="26.995"/>
	<g>
		<path d="M294.883,311.402c-0.312,0-0.562-0.096-0.75-0.287c-0.188-0.192-0.281-0.444-0.281-0.756v-5.965
			c0-0.328,0.084-0.58,0.252-0.756s0.424-0.268,0.768-0.275h2.893c0.312,0,0.467,0.176,0.467,0.527c0,0.344-0.151,0.516-0.455,0.516
			h-2.881v2.256h1.873c0.287,0,0.432,0.186,0.432,0.553c0,0.191-0.04,0.322-0.12,0.391c-0.08,0.067-0.2,0.102-0.36,0.102h-1.824
			v2.652h2.904c0.32,0.176,0.48,0.348,0.48,0.516c0,0.352-0.16,0.527-0.48,0.527H294.883z"/>
		<path d="M304.165,307.095c-0.052,0.12-0.122,0.228-0.21,0.324c-0.088,0.096-0.192,0.172-0.313,0.228
			c-0.119,0.057-0.244,0.084-0.371,0.084c-0.272,0-0.503-0.098-0.69-0.293c-0.188-0.197-0.282-0.438-0.282-0.727
			c0-0.128,0.025-0.256,0.078-0.385c0.052-0.127,0.121-0.239,0.21-0.336c0.088-0.096,0.19-0.174,0.306-0.233
			c0.116-0.06,0.242-0.09,0.379-0.09c0.135,0,0.262,0.03,0.377,0.09c0.116,0.06,0.219,0.138,0.307,0.233
			c0.088,0.097,0.158,0.207,0.21,0.33c0.052,0.125,0.077,0.254,0.077,0.391S304.217,306.975,304.165,307.095z M303.931,310.646
			c-0.2,0.2-0.42,0.301-0.659,0.301c-0.121,0-0.24-0.026-0.36-0.078c-0.12-0.053-0.224-0.124-0.312-0.217
			c-0.089-0.092-0.16-0.195-0.217-0.312s-0.084-0.233-0.084-0.354c0-0.231,0.104-0.459,0.313-0.684
			c0.199-0.224,0.42-0.336,0.66-0.336c0.135,0,0.262,0.028,0.377,0.084c0.116,0.057,0.219,0.132,0.307,0.229
			c0.088,0.096,0.158,0.205,0.21,0.33c0.052,0.123,0.077,0.25,0.077,0.377C304.242,310.219,304.139,310.439,303.931,310.646z"/>
	</g>
</g>
<g>
	<circle fill="#FFFFFF" stroke="#000000" stroke-miterlimit="10" cx="157.843" cy="27.494" r="26.994"/>
	<g>
		<path d="M156.031,27.227c-0.344,1.072-0.622,1.928-0.834,2.568c-0.212,0.64-0.362,1.072-0.45,1.296
			c-0.128,0.344-0.304,0.516-0.528,0.516c-0.216,0-0.388-0.18-0.516-0.54c-0.28-0.776-0.712-2.048-1.296-3.816
			c-0.688-2.104-1.032-3.272-1.032-3.504c0.12-0.264,0.324-0.396,0.612-0.396c0.312,0,0.56,0.288,0.744,0.864l1.488,4.452
			l1.512-4.416c0.232-0.624,0.508-0.936,0.828-0.936c0.272,0,0.452,0.128,0.54,0.384C157.099,23.819,156.743,24.995,156.031,27.227z
			"/>
		<path d="M164.31,28.126h-3.516c0.52,0.408,0.78,0.744,0.78,1.008c0,0.104-0.042,0.188-0.126,0.252s-0.178,0.096-0.282,0.096
			c-0.064,0-0.32-0.176-0.768-0.528c-0.488-0.392-0.772-0.608-0.852-0.648c-0.136-0.048-0.27-0.096-0.402-0.144
			c-0.132-0.048-0.266-0.096-0.402-0.144c-0.424-0.16-0.636-0.292-0.636-0.396c0-0.128,0.216-0.26,0.648-0.396
			c0.136-0.04,0.276-0.08,0.42-0.12c0.144-0.04,0.284-0.08,0.42-0.12c0.192-0.096,0.504-0.344,0.936-0.744
			c0.368-0.344,0.648-0.54,0.84-0.588c0.08,0.048,0.144,0.172,0.192,0.372c-0.144,0.448-0.4,0.8-0.768,1.056h3.552
			c0.288,0,0.432,0.18,0.432,0.54S164.622,28.15,164.31,28.126z"/>
	</g>
</g>
<g>
	<circle fill="#FFFFFF" stroke="#000000" stroke-miterlimit="10" cx="27.495" cy="307.422" r="26.995"/>
	<g>
		<path d="M21.849,310.661c-0.348-0.495-0.522-0.993-0.522-1.495v-5.408c0-0.152,0.014-0.264,0.042-0.336
			c0.028-0.071,0.066-0.119,0.114-0.143c0.048-0.024,0.108-0.032,0.18-0.024c0.072,0.008,0.152,0.012,0.24,0.012
			c0.312,0,0.468,0.163,0.468,0.491v5.07c0,0.559,0.13,0.965,0.39,1.221c0.26,0.254,0.626,0.382,1.098,0.382
			c0.52,0,0.91-0.104,1.17-0.311c0.26-0.208,0.39-0.638,0.39-1.292v-4.999c0-0.12,0.044-0.241,0.132-0.364
			c0.088-0.124,0.192-0.186,0.312-0.186c0.16,0,0.3,0.047,0.42,0.143c0.12,0.096,0.18,0.22,0.18,0.371v5.373
			c0,1.491-0.864,2.236-2.592,2.236C22.87,311.402,22.196,311.156,21.849,310.661z"/>
		<path d="M33.962,308.055h-3.516c0.52,0.408,0.78,0.744,0.78,1.008c0,0.104-0.042,0.188-0.126,0.252
			c-0.084,0.064-0.178,0.096-0.282,0.096c-0.064,0-0.32-0.176-0.768-0.527c-0.488-0.393-0.772-0.607-0.852-0.648
			c-0.136-0.047-0.27-0.096-0.402-0.144c-0.132-0.048-0.266-0.097-0.402-0.144c-0.424-0.16-0.636-0.293-0.636-0.396
			c0-0.128,0.216-0.26,0.648-0.396c0.136-0.039,0.276-0.079,0.42-0.119s0.284-0.08,0.42-0.12c0.192-0.097,0.504-0.345,0.936-0.744
			c0.368-0.344,0.648-0.54,0.84-0.588c0.08,0.048,0.144,0.172,0.192,0.372c-0.144,0.447-0.4,0.8-0.768,1.056h3.552
			c0.288,0,0.432,0.181,0.432,0.54S34.274,308.078,33.962,308.055z"/>
	</g>
</g>
<g>
	<circle fill="#FFFFFF" stroke="#000000" stroke-miterlimit="10" cx="75.572" cy="228.579" r="26.995"/>
	<g>
		<path d="M73.76,228.312c-0.344,1.072-0.622,1.929-0.834,2.567c-0.212,0.641-0.362,1.072-0.45,1.297
			c-0.128,0.344-0.304,0.516-0.528,0.516c-0.216,0-0.388-0.18-0.516-0.54c-0.28-0.776-0.712-2.048-1.296-3.815
			c-0.688-2.104-1.032-3.272-1.032-3.504c0.12-0.265,0.324-0.396,0.612-0.396c0.312,0,0.56,0.288,0.744,0.864l1.488,4.452
			l1.512-4.416c0.232-0.625,0.508-0.937,0.828-0.937c0.272,0,0.452,0.128,0.54,0.384C74.828,224.904,74.472,226.08,73.76,228.312z"
			/>
		<path d="M81.56,232.596c-0.056,0.08-0.19,0.119-0.403,0.119c-0.143,0-0.269-0.055-0.38-0.168
			c-0.103-0.111-0.166-0.243-0.189-0.396c-0.384,0.337-1.032,0.505-1.944,0.505c-0.76,0-1.288-0.257-1.584-0.769
			c-0.24-0.392-0.36-0.996-0.36-1.812v-2.832c0-0.137,0.056-0.254,0.168-0.354s0.236-0.149,0.372-0.149
			c0.336,0,0.504,0.135,0.504,0.406l0.012,2.957c0.016,0.566,0.084,0.945,0.204,1.137c0.176,0.248,0.528,0.371,1.056,0.371
			c0.24,0,0.552-0.067,0.936-0.203c0.44-0.168,0.66-0.348,0.66-0.539v-3.711c0-0.111,0.074-0.211,0.221-0.299
			c0.131-0.064,0.258-0.096,0.381-0.096c0.294,0,0.442,0.145,0.442,0.432v1.729c-0.016,0.392-0.024,0.732-0.024,1.02
			c0,0.28,0,0.512,0,0.696v1.548C81.631,232.404,81.607,232.539,81.56,232.596z"/>
	</g>
</g>
<g>
	<g>
		<line fill="none" stroke="#000000" stroke-miterlimit="10" x1="59.489" y1="179.612" x2="124.879" y2="179.611"/>
		<g>
			<polygon points="122.07,183.314 123.644,179.611 122.07,175.908 130.849,179.611 			"/>
		</g>
	</g>
</g>
<g>
	<g>
		<line fill="none" stroke="#000000" stroke-miterlimit="10" x1="184.837" y1="179.611" x2="251.744" y2="179.611"/>
		<g>
			<polygon points="248.936,183.314 250.509,179.611 248.936,175.908 257.714,179.611 			"/>
		</g>
	</g>
</g>
<g>
	<g>
		<path fill="none" stroke="#000000" stroke-miterlimit="10" d="M157.843,206.606c0,0-14.667,24.203-0.001,24.203
			c10.244,0,6.178-11.808,2.795-18.929"/>
		<g>
			<polygon points="165.153,212.717 161.141,213.013 158.568,216.106 157.843,206.606 			"/>
		</g>
	</g>
</g>
<g>
	<g>
		<line fill="none" stroke="#000000" stroke-miterlimit="10" x1="177.268" y1="198.346" x2="207.795" y2="248.419"/>
		<g>
			<polygon points="203.171,247.949 207.152,247.364 209.495,244.094 210.902,253.517 			"/>
		</g>
	</g>
</g>
<g>
	<g>
		<line fill="none" stroke="#000000" stroke-miterlimit="10" x1="157.843" y1="152.617" x2="157.84" y2="131.86"/>
		<g>
			<polygon points="161.543,134.668 157.84,133.096 154.137,134.669 157.839,125.891 			"/>
		</g>
	</g>
</g>
<g>
	<g>
		<line fill="none" stroke="#000000" stroke-miterlimit="10" x1="136.181" y1="195.721" x2="105.706" y2="215.462"/>
		<g>
			<polygon points="106.05,210.827 106.743,214.791 110.077,217.043 100.696,218.708 			"/>
		</g>
	</g>
</g>
<g>
	<g>
		<line fill="none" stroke="#000000" stroke-miterlimit="10" x1="215.494" y1="307.108" x2="215.494" y2="347.216"/>
		<g>
			<polygon points="211.791,344.407 215.494,345.98 219.197,344.407 215.494,353.186 			"/>
		</g>
	</g>
</g>
<g>
	<g>
		<line fill="none" stroke="#000000" stroke-miterlimit="10" x1="241.605" y1="286.984" x2="268.434" y2="296.903"/>
		<g>
			<polygon points="264.516,299.402 267.275,296.475 267.084,292.456 274.033,298.974 			"/>
		</g>
	</g>
</g>
<g>
	<g>
		<line fill="none" stroke="#000000" stroke-miterlimit="10" x1="200.895" y1="257.414" x2="172.687" y2="209.033"/>
		<g>
			<polygon points="177.3,209.595 173.309,210.101 170.902,213.324 169.68,203.876 			"/>
		</g>
	</g>
</g>
<g>
	<g>
		<line fill="none" stroke="#000000" stroke-miterlimit="10" x1="157.839" y1="71.548" x2="157.84" y2="60.458"/>
		<g>
			<polygon points="161.543,63.267 157.84,61.693 154.137,63.266 157.841,54.488 			"/>
		</g>
	</g>
</g>
<g>
	<g>
		<line fill="none" stroke="#000000" stroke-miterlimit="10" x1="61.657" y1="251.713" x2="44.275" y2="279.057"/>
		<g>
			<polygon points="42.656,274.7 44.938,278.015 48.907,278.673 41.072,284.095 			"/>
		</g>
	</g>
</g>
<g>
	<g>
		<line fill="none" stroke="#000000" stroke-miterlimit="10" x1="282.048" y1="286.984" x2="186.486" y2="195.442"/>
		<g>
			<polygon points="191.076,194.711 187.379,196.297 185.953,200.06 182.176,191.313 			"/>
		</g>
	</g>
</g>
<g>
	<g>
		<line fill="none" stroke="#000000" stroke-miterlimit="10" x1="294.992" y1="280.428" x2="282.809" y2="260.656"/>
		<g>
			<polygon points="287.435,261.104 283.457,261.708 281.13,264.99 279.677,255.574 			"/>
		</g>
	</g>
</g>
<g>
	<g>
		<line fill="none" stroke="#000000" stroke-miterlimit="10" x1="54.003" y1="302.33" x2="70.836" y2="299.846"/>
		<g>
			<polygon points="68.598,303.919 69.614,300.025 67.517,296.592 76.742,298.974 			"/>
		</g>
	</g>
</g>
<g>
	<g>
		<line fill="none" stroke="#000000" stroke-miterlimit="10" x1="27.494" y1="280.428" x2="27.495" y2="131.86"/>
		<g>
			<polygon points="31.198,134.669 27.495,133.096 23.792,134.669 27.495,125.891 			"/>
		</g>
	</g>
</g>
<g>
	<g>
		<path fill="none" stroke="#000000" stroke-miterlimit="10" d="M27.494,334.416c0,0-13.65,24.796,0.001,24.796
			c9.545,0,5.741-12.124,2.589-19.416"/>
		<g>
			<polygon points="34.569,340.797 30.549,340.941 27.862,343.937 27.494,334.416 			"/>
		</g>
	</g>
</g>
<g>
	<g>
		<line fill="none" stroke="#000000" stroke-miterlimit="10" x1="306.673" y1="228.579" x2="370.68" y2="228.579"/>
		<g>
			<polygon points="367.871,232.282 369.444,228.579 367.871,224.876 376.649,228.579 			"/>
		</g>
	</g>
</g>
<g>
	<g>
		<line fill="none" stroke="#000000" stroke-miterlimit="10" x1="257.819" y1="212.747" x2="189.672" y2="188.079"/>
		<g>
			<polygon points="193.573,185.553 190.834,188.5 191.053,192.517 184.059,186.047 			"/>
		</g>
	</g>
</g>
<g>
	<g>
		<line fill="none" stroke="#000000" stroke-miterlimit="10" x1="326.667" y1="307.422" x2="379.556" y2="307.422"/>
		<g>
			<polygon points="376.747,311.125 378.32,307.422 376.747,303.719 385.525,307.422 			"/>
		</g>
	</g>
</g>
<g>
	<g>
		<line fill="none" stroke="#000000" stroke-miterlimit="10" x1="184.837" y1="27.494" x2="268.89" y2="77.008"/>
		<g>
			<polygon points="264.59,78.773 267.825,76.381 268.35,72.392 274.033,80.038 			"/>
		</g>
	</g>
</g>
<g>
	<g>
		<line fill="none" stroke="#000000" stroke-miterlimit="10" x1="130.849" y1="27.494" x2="60.459" y2="27.494"/>
		<g>
			<polygon points="63.268,23.791 61.694,27.494 63.268,31.197 54.489,27.494 			"/>
		</g>
	</g>
</g>
<g>
	<g>
		<line fill="none" stroke="#000000" stroke-miterlimit="10" x1="130.849" y1="27.494" x2="56.174" y2="82.4"/>
		<g>
			<polygon points="56.243,77.752 57.169,81.668 60.63,83.719 51.364,85.936 			"/>
		</g>
	</g>
</g>
<g>
	<g>
		<line fill="none" stroke="#000000" stroke-miterlimit="10" x1="320.673" y1="98.542" x2="374.229" y2="98.542"/>
		<g>
			<polygon points="371.421,102.245 372.994,98.542 371.421,94.839 380.199,98.542 			"/>
		</g>
	</g>
</g>
<g>
	<g>
		<line fill="none" stroke="#000000" stroke-miterlimit="10" x1="268.577" y1="108.474" x2="185.003" y2="160.951"/>
		<g>
			<polygon points="185.412,156.321 186.049,160.293 189.351,162.593 179.947,164.125 			"/>
		</g>
	</g>
</g>
<g>
	<g>
		<line fill="none" stroke="#000000" stroke-miterlimit="10" x1="54.489" y1="98.543" x2="97.596" y2="98.543"/>
		<g>
			<polygon points="94.788,102.246 96.361,98.543 94.788,94.84 103.566,98.543 			"/>
		</g>
	</g>
</g>
<g>
	<g>
		<line fill="none" stroke="#000000" stroke-miterlimit="10" x1="52.595" y1="108.474" x2="133.461" y2="157.625"/>
		<g>
			<polygon points="129.138,159.331 132.405,156.983 132.984,153.002 138.563,160.726 			"/>
		</g>
	</g>
</g>
<g>
	<g>
		<line fill="none" stroke="#000000" stroke-miterlimit="10" x1="54.003" y1="93.439" x2="127.613" y2="40.166"/>
		<g>
			<polygon points="127.509,44.813 126.612,40.89 123.167,38.813 132.449,36.666 			"/>
		</g>
	</g>
</g>
<g>
	<g>
		<line fill="none" stroke="#000000" stroke-miterlimit="10" x1="52.595" y1="17.563" x2="126.479" y2="17.563"/>
		<g>
			<polygon points="123.671,21.267 125.244,17.563 123.671,13.86 132.449,17.563 			"/>
		</g>
	</g>
</g>
<g>
	<g>
		<line fill="none" stroke="#000000" stroke-miterlimit="10" x1="130.561" y1="295.974" x2="168.313" y2="295.974"/>
		<g>
			<polygon points="165.504,299.677 167.077,295.974 165.504,292.271 174.282,295.974 			"/>
		</g>
	</g>
</g>
<g>
	<g>
		<line fill="none" stroke="#000000" stroke-miterlimit="10" x1="112.706" y1="270.569" x2="143.339" y2="209.217"/>
		<g>
			<polygon points="145.397,213.384 142.787,210.322 138.771,210.075 146.006,203.876 			"/>
		</g>
	</g>
</g>
<g>
</g>
<g>
</g>
<g>
</g>
<g>
</g>
<g>
</g>
<g>
</g>
<g>
</g>
</svg>
