<?xml version="1.0" encoding="utf-8"?>
<!-- Generator: Adobe Illustrator 16.0.3, SVG Export Plug-In . SVG Version: 6.00 Build 0)  -->
<!DOCTYPE svg PUBLIC "-//W3C//DTD SVG 1.1//EN" "http://www.w3.org/Graphics/SVG/1.1/DTD/svg11.dtd">
<svg version="1.1" id="Layer_1" xmlns="http://www.w3.org/2000/svg" xmlns:xlink="http://www.w3.org/1999/xlink" x="0px" y="0px"
	 width="613.997px" height="425.08px" viewBox="0 0 613.997 425.08" enable-background="new 0 0 613.997 425.08"
	 xml:space="preserve">
<g>
	<circle fill="#FFFFFF" stroke="#000000" stroke-miterlimit="10" cx="136.12" cy="227.494" r="26.994"/>
	<g>
		<path d="M127.768,226.674h1.812c0.144-0.008,0.264,0.044,0.36,0.156c0.096,0.112,0.144,0.244,0.144,0.396
			c0,0.321-0.168,0.485-0.504,0.493h-1.812c0.016,1.104,0.02,1.947,0.012,2.531s-0.012,0.885-0.012,0.9
			c0,0.208-0.05,0.348-0.15,0.42s-0.234,0.107-0.402,0.107c-0.16,0-0.282-0.058-0.366-0.174c-0.084-0.115-0.126-0.242-0.126-0.378
			v-6.648c0-0.696,0.336-1.044,1.008-1.044h2.808c0.16,0,0.294,0.052,0.402,0.156s0.162,0.232,0.162,0.384
			c0,0.336-0.188,0.504-0.564,0.504h-2.772V226.674z"/>
		<path d="M136.852,231.306c0,0.184-0.168,0.275-0.504,0.275c-0.352,0-0.528-0.1-0.528-0.299v-4.405h-1.128
			c-0.28,0-0.42-0.148-0.42-0.444c0-0.176,0.038-0.32,0.114-0.432c0.076-0.112,0.178-0.168,0.306-0.168h1.476
			c0.304,0,0.496,0.044,0.576,0.132c0.08,0.088,0.12,0.208,0.12,0.359v5.005L136.852,231.306z M136.071,224.91
			c-0.2,0-0.374-0.074-0.522-0.222c-0.148-0.148-0.222-0.318-0.222-0.51c0-0.2,0.074-0.372,0.222-0.516s0.322-0.216,0.522-0.216
			c0.192,0,0.36,0.072,0.504,0.216s0.216,0.316,0.216,0.516C136.792,224.666,136.552,224.91,136.071,224.91z"/>
		<path d="M145.287,231.545c-0.336,0-0.58-0.112-0.732-0.336l-1.236-1.728l-1.272,1.812c-0.152,0.177-0.356,0.265-0.612,0.265
			c-0.432,0.016-0.6-0.145-0.504-0.479l1.764-2.454l-1.908-2.456c0.128-0.432,0.46-0.543,0.996-0.335l1.536,1.92l1.248-1.86
			c0.088-0.144,0.228-0.216,0.42-0.216c0.2,0,0.356,0.04,0.468,0.12c0.112,0.08,0.168,0.168,0.168,0.264
			c0,0.12-0.564,0.964-1.692,2.532l1.512,2.028C145.739,230.982,145.687,231.29,145.287,231.545z"/>
	</g>
</g>
<g>
	<circle fill="#FFFFFF" stroke="#000000" stroke-miterlimit="10" cx="336.12" cy="377.494" r="26.994"/>
	<g>
		<path d="M330.708,377.226c-0.344,1.072-0.622,1.928-0.834,2.567c-0.213,0.64-0.362,1.072-0.45,1.296
			c-0.128,0.344-0.304,0.516-0.528,0.516c-0.216,0-0.388-0.18-0.516-0.539c-0.28-0.776-0.712-2.049-1.296-3.816
			c-0.688-2.104-1.032-3.271-1.032-3.504c0.12-0.264,0.324-0.396,0.612-0.396c0.312,0,0.56,0.289,0.744,0.865l1.488,4.451
			l1.511-4.416c0.232-0.624,0.508-0.936,0.828-0.936c0.272,0,0.452,0.128,0.541,0.384
			C331.776,373.818,331.419,374.994,330.708,377.226z"/>
		<path d="M338.508,381.509c-0.057,0.08-0.19,0.12-0.404,0.12c-0.143,0-0.269-0.056-0.379-0.168
			c-0.104-0.112-0.166-0.243-0.189-0.396c-0.385,0.336-1.033,0.504-1.945,0.504c-0.76,0-1.287-0.256-1.584-0.768
			c-0.239-0.393-0.359-0.996-0.359-1.813v-2.832c0-0.137,0.057-0.254,0.168-0.354c0.111-0.101,0.236-0.15,0.372-0.15
			c0.336,0,0.504,0.136,0.504,0.406l0.013,2.957c0.016,0.566,0.084,0.945,0.203,1.138c0.176,0.247,0.528,0.37,1.057,0.37
			c0.24,0,0.552-0.066,0.936-0.203c0.439-0.167,0.66-0.347,0.66-0.538v-3.711c0-0.112,0.074-0.212,0.221-0.3
			c0.131-0.063,0.258-0.096,0.381-0.096c0.295,0,0.442,0.145,0.442,0.433v1.728c-0.017,0.393-0.024,0.732-0.024,1.02
			c0,0.281,0,0.513,0,0.697v1.547C338.579,381.318,338.555,381.454,338.508,381.509z"/>
		<path d="M346.186,378.125h-3.516c0.521,0.408,0.78,0.744,0.78,1.009c0,0.104-0.042,0.188-0.126,0.252
			c-0.084,0.063-0.178,0.096-0.281,0.096c-0.064,0-0.32-0.176-0.769-0.528c-0.488-0.392-0.772-0.608-0.853-0.647
			c-0.136-0.049-0.27-0.097-0.402-0.145c-0.131-0.048-0.266-0.096-0.401-0.145c-0.424-0.159-0.636-0.291-0.636-0.396
			c0-0.128,0.216-0.26,0.648-0.396c0.135-0.041,0.275-0.08,0.42-0.121c0.144-0.039,0.283-0.079,0.42-0.119
			c0.191-0.096,0.504-0.344,0.936-0.744c0.367-0.344,0.648-0.54,0.84-0.588c0.08,0.048,0.145,0.172,0.192,0.371
			c-0.144,0.449-0.4,0.801-0.769,1.057h3.553c0.287,0,0.432,0.18,0.432,0.54S346.499,378.15,346.186,378.125z"/>
	</g>
</g>
<g>
	<circle fill="#FFFFFF" stroke="#000000" stroke-miterlimit="10" cx="536.12" cy="227.494" r="26.994"/>
	<g>
		<path d="M527.731,231.474c-0.312,0-0.562-0.096-0.75-0.288c-0.188-0.192-0.281-0.444-0.281-0.756v-5.964
			c0-0.328,0.084-0.58,0.252-0.756c0.168-0.176,0.424-0.268,0.768-0.276h2.893c0.312,0,0.467,0.176,0.467,0.528
			c0,0.344-0.151,0.516-0.455,0.516h-2.881v2.256h1.873c0.287,0,0.432,0.185,0.432,0.552c0,0.192-0.04,0.323-0.12,0.39
			s-0.2,0.103-0.36,0.103h-1.824v2.651h2.904c0.32,0.176,0.48,0.349,0.48,0.517c0,0.352-0.16,0.527-0.48,0.527H527.731z"/>
		<path d="M538.219,230.802c-0.465,0.536-1.145,0.804-2.04,0.804s-1.593-0.271-2.089-0.815c-0.471-0.536-0.707-1.256-0.707-2.16
			c0-0.881,0.224-1.588,0.672-2.124c0.48-0.56,1.156-0.84,2.027-0.84c0.904,0,1.604,0.276,2.101,0.828
			c0.448,0.52,0.672,1.244,0.672,2.171C538.855,229.57,538.643,230.283,538.219,230.802z M537.319,227.346
			c-0.313-0.392-0.729-0.588-1.248-0.588c-0.504,0-0.904,0.192-1.199,0.576c-0.272,0.344-0.408,0.777-0.408,1.296
			c0,0.544,0.168,0.996,0.504,1.355c0.352,0.353,0.792,0.528,1.32,0.528c0.463,0,0.832-0.196,1.104-0.588
			c0.24-0.345,0.359-0.761,0.359-1.248C537.75,228.15,537.607,227.707,537.319,227.346z"/>
		<path d="M542.281,223.41c0.108-0.072,0.218-0.108,0.33-0.108h0.024c0.352,0.016,0.527,0.176,0.527,0.48v2.052h1.439
			c0.248,0.016,0.373,0.158,0.373,0.425c-0.024,0.203-0.068,0.36-0.133,0.474c-0.072,0.097-0.164,0.146-0.275,0.146h-1.393v2.56
			c0,0.446,0.045,0.749,0.133,0.909c0.119,0.215,0.363,0.322,0.731,0.322c0.288-0.008,0.476-0.039,0.563-0.096l0.349-0.287
			c0.056-0.032,0.116-0.049,0.181-0.049c0.055,0,0.104,0.012,0.144,0.036c0.063,0.04,0.122,0.108,0.174,0.204
			s0.078,0.204,0.078,0.324l-0.013,0.096c-0.023,0.129-0.096,0.232-0.215,0.313c-0.24,0.16-0.453,0.266-0.637,0.318
			c-0.184,0.051-0.4,0.077-0.648,0.077c-0.735-0.008-1.231-0.188-1.487-0.538c-0.265-0.367-0.396-0.906-0.396-1.616v-2.574h-0.757
			c-0.088,0-0.147-0.048-0.18-0.146c-0.056-0.113-0.084-0.255-0.084-0.425c0-0.097,0.024-0.194,0.071-0.292
			c0.033-0.121,0.108-0.182,0.229-0.182h0.708v-2.112C542.119,223.586,542.172,223.482,542.281,223.41z"/>
	</g>
</g>
<g>
	<circle fill="#FFFFFF" stroke="#000000" stroke-miterlimit="10" cx="436.12" cy="127.493" r="26.994"/>
	<g>
		<path d="M427.108,127.225c-0.344,1.072-0.621,1.928-0.834,2.568c-0.212,0.64-0.361,1.072-0.449,1.296
			c-0.129,0.344-0.305,0.516-0.528,0.516c-0.216,0-0.388-0.18-0.517-0.54c-0.279-0.776-0.712-2.048-1.295-3.816
			c-0.689-2.104-1.033-3.272-1.033-3.504c0.121-0.264,0.324-0.396,0.613-0.396c0.311,0,0.559,0.288,0.743,0.864l1.488,4.452
			l1.512-4.416c0.231-0.624,0.508-0.936,0.828-0.936c0.272,0,0.452,0.128,0.54,0.384
			C428.176,123.817,427.821,124.993,427.108,127.225z"/>
		<path d="M435.387,128.125h-3.516c0.521,0.408,0.78,0.744,0.78,1.008c0,0.104-0.042,0.188-0.126,0.252s-0.178,0.096-0.281,0.096
			c-0.064,0-0.32-0.176-0.769-0.528c-0.488-0.392-0.772-0.608-0.853-0.648c-0.136-0.048-0.27-0.096-0.402-0.144
			c-0.131-0.048-0.266-0.096-0.401-0.144c-0.424-0.16-0.636-0.292-0.636-0.396c0-0.128,0.216-0.26,0.648-0.396
			c0.135-0.04,0.275-0.08,0.42-0.12c0.144-0.04,0.283-0.08,0.42-0.12c0.191-0.096,0.504-0.344,0.936-0.744
			c0.367-0.344,0.648-0.54,0.84-0.588c0.08,0.048,0.145,0.172,0.192,0.372c-0.144,0.448-0.4,0.8-0.769,1.056h3.553
			c0.287,0,0.432,0.18,0.432,0.54S435.7,128.149,435.387,128.125z"/>
		<path d="M438.568,126.673h1.812c0.145-0.008,0.264,0.044,0.36,0.156c0.096,0.112,0.144,0.244,0.144,0.396
			c0,0.32-0.168,0.484-0.504,0.492h-1.812c0.016,1.104,0.02,1.948,0.012,2.532s-0.012,0.884-0.012,0.9c0,0.208-0.05,0.348-0.15,0.42
			c-0.101,0.072-0.233,0.108-0.401,0.108c-0.16,0-0.283-0.058-0.367-0.174c-0.084-0.116-0.125-0.242-0.125-0.378v-6.648
			c0-0.696,0.336-1.044,1.008-1.044h2.809c0.159,0,0.293,0.052,0.401,0.156s0.162,0.232,0.162,0.384
			c0,0.336-0.188,0.504-0.563,0.504h-2.772V126.673z"/>
		<path d="M448.507,129.133h-3.117c0.032,0.912,0.569,1.368,1.612,1.368c0.326,0,0.619-0.02,0.877-0.06
			c0.26-0.04,0.611-0.164,1.058-0.372c0.175-0.024,0.303,0.063,0.382,0.259c0.08,0.197-0.012,0.422-0.274,0.676
			c-0.47,0.36-1.183,0.54-2.138,0.54c-0.9,0-1.576-0.3-2.03-0.9c-0.406-0.536-0.608-1.224-0.608-2.064
			c0-0.888,0.23-1.592,0.691-2.112c0.479-0.544,1.1-0.816,1.863-0.816c1.672,0,2.509,0.928,2.509,2.784
			C449.332,128.901,449.057,129.133,448.507,129.133z M446.692,126.649c-0.297,0-0.582,0.138-0.858,0.414s-0.423,0.618-0.438,1.027
			h2.893C448.239,127.129,447.708,126.649,446.692,126.649z"/>
	</g>
</g>
<g>
	<circle fill="#FFFFFF" stroke="#000000" stroke-miterlimit="10" cx="436.12" cy="27.493" r="26.994"/>
	<g>
		<path d="M427.108,27.226c-0.344,1.072-0.622,1.928-0.834,2.568c-0.213,0.64-0.362,1.072-0.45,1.296
			c-0.128,0.344-0.304,0.516-0.528,0.516c-0.216,0-0.388-0.18-0.516-0.54c-0.28-0.776-0.713-2.048-1.296-3.816
			c-0.688-2.104-1.032-3.272-1.032-3.504c0.12-0.264,0.324-0.396,0.612-0.396c0.312,0,0.56,0.288,0.743,0.864l1.488,4.452
			l1.512-4.416c0.232-0.624,0.508-0.936,0.828-0.936c0.272,0,0.452,0.128,0.541,0.384C428.176,23.818,427.82,24.994,427.108,27.226z
			"/>
		<path d="M435.387,28.126h-3.516c0.52,0.408,0.779,0.744,0.779,1.008c0,0.104-0.041,0.188-0.125,0.252s-0.179,0.096-0.282,0.096
			c-0.064,0-0.32-0.176-0.769-0.528c-0.488-0.392-0.771-0.608-0.852-0.648c-0.137-0.048-0.27-0.096-0.402-0.144
			c-0.132-0.048-0.266-0.096-0.402-0.144c-0.424-0.16-0.635-0.292-0.635-0.396c0-0.128,0.215-0.26,0.647-0.396
			c0.136-0.04,0.276-0.08,0.42-0.12c0.144-0.04,0.284-0.08,0.42-0.12c0.192-0.096,0.504-0.344,0.937-0.744
			c0.367-0.344,0.647-0.54,0.84-0.588c0.08,0.048,0.144,0.172,0.191,0.372c-0.144,0.448-0.4,0.8-0.768,1.056h3.552
			c0.288,0,0.433,0.18,0.433,0.54S435.7,28.15,435.387,28.126z"/>
		<path d="M441.507,27.226c-0.345,1.072-0.622,1.928-0.834,2.568c-0.212,0.64-0.362,1.072-0.45,1.296
			c-0.128,0.344-0.305,0.516-0.527,0.516c-0.217,0-0.389-0.18-0.517-0.54c-0.28-0.776-0.712-2.048-1.296-3.816
			c-0.688-2.104-1.032-3.272-1.032-3.504c0.12-0.264,0.324-0.396,0.612-0.396c0.312,0,0.56,0.288,0.744,0.864l1.488,4.452
			l1.512-4.416c0.231-0.624,0.508-0.936,0.828-0.936c0.271,0,0.451,0.128,0.539,0.384C442.575,23.818,442.219,24.994,441.507,27.226
			z"/>
		<path d="M449.307,31.51c-0.055,0.08-0.189,0.12-0.402,0.12c-0.143,0-0.27-0.056-0.381-0.168c-0.102-0.112-0.166-0.244-0.189-0.396
			c-0.384,0.336-1.031,0.504-1.943,0.504c-0.76,0-1.289-0.256-1.584-0.768c-0.24-0.392-0.36-0.996-0.36-1.812v-2.832
			c0-0.136,0.056-0.254,0.168-0.354s0.235-0.15,0.372-0.15c0.336,0,0.504,0.136,0.504,0.407l0.012,2.957
			c0.016,0.566,0.084,0.945,0.205,1.137c0.176,0.247,0.527,0.371,1.055,0.371c0.24,0,0.553-0.067,0.937-0.203
			c0.44-0.167,0.66-0.347,0.66-0.539v-3.711c0-0.112,0.073-0.211,0.222-0.299c0.131-0.064,0.258-0.096,0.381-0.096
			c0.294,0,0.441,0.144,0.441,0.432v1.728c-0.016,0.392-0.023,0.732-0.023,1.02c0,0.28,0,0.512,0,0.696v1.548
			C449.379,31.318,449.355,31.454,449.307,31.51z"/>
	</g>
</g>
<g>
	<circle fill="#FFFFFF" stroke="#000000" stroke-miterlimit="10" cx="436.12" cy="377.494" r="26.994"/>
	<g>
		<path d="M423.274,380.732c-0.349-0.494-0.522-0.993-0.522-1.496v-5.408c0-0.15,0.014-0.263,0.042-0.334
			c0.027-0.072,0.066-0.12,0.113-0.145c0.049-0.023,0.108-0.031,0.181-0.023c0.071,0.008,0.151,0.012,0.239,0.012
			c0.313,0,0.469,0.164,0.469,0.49v5.071c0,0.558,0.13,0.965,0.39,1.22c0.261,0.256,0.626,0.383,1.099,0.383
			c0.52,0,0.91-0.104,1.17-0.311s0.39-0.639,0.39-1.292V373.9c0-0.119,0.044-0.241,0.132-0.365c0.088-0.123,0.192-0.186,0.313-0.186
			c0.16,0,0.3,0.049,0.42,0.145c0.119,0.096,0.18,0.219,0.18,0.371v5.371c0,1.492-0.863,2.238-2.592,2.238
			C424.295,381.474,423.622,381.226,423.274,380.732z"/>
		<path d="M435.387,378.125h-3.516c0.52,0.408,0.779,0.744,0.779,1.009c0,0.104-0.042,0.188-0.126,0.252
			c-0.084,0.063-0.179,0.096-0.282,0.096c-0.064,0-0.32-0.176-0.768-0.528c-0.488-0.392-0.772-0.608-0.852-0.647
			c-0.137-0.049-0.271-0.097-0.402-0.145c-0.133-0.048-0.266-0.096-0.402-0.145c-0.424-0.159-0.636-0.291-0.636-0.396
			c0-0.128,0.216-0.26,0.647-0.396c0.137-0.041,0.276-0.08,0.42-0.121c0.145-0.039,0.284-0.079,0.42-0.119
			c0.192-0.096,0.504-0.344,0.937-0.744c0.368-0.344,0.647-0.54,0.84-0.588c0.08,0.048,0.144,0.172,0.192,0.371
			c-0.145,0.449-0.4,0.801-0.768,1.057h3.551c0.289,0,0.433,0.18,0.433,0.54S435.699,378.15,435.387,378.125z"/>
		<path d="M438.567,376.673h1.812c0.144-0.008,0.265,0.045,0.36,0.156c0.096,0.112,0.145,0.244,0.145,0.396
			c0,0.32-0.168,0.484-0.505,0.492h-1.812c0.016,1.104,0.02,1.947,0.012,2.531s-0.012,0.885-0.012,0.9
			c0,0.208-0.051,0.348-0.15,0.42s-0.234,0.107-0.402,0.107c-0.16,0-0.281-0.058-0.365-0.174c-0.084-0.115-0.127-0.242-0.127-0.378
			v-6.647c0-0.696,0.337-1.045,1.009-1.045h2.808c0.16,0,0.295,0.053,0.402,0.156c0.107,0.104,0.162,0.232,0.162,0.385
			c0,0.336-0.188,0.504-0.564,0.504h-2.771V376.673z"/>
		<path d="M448.506,379.134h-3.117c0.031,0.911,0.568,1.367,1.612,1.367c0.326,0,0.618-0.02,0.878-0.061
			c0.258-0.039,0.611-0.163,1.057-0.371c0.176-0.024,0.303,0.063,0.383,0.26c0.08,0.196-0.012,0.422-0.275,0.676
			c-0.47,0.36-1.182,0.54-2.138,0.54c-0.899,0-1.577-0.3-2.03-0.899c-0.406-0.536-0.609-1.225-0.609-2.064
			c0-0.888,0.23-1.592,0.693-2.111c0.477-0.545,1.098-0.816,1.863-0.816c1.672,0,2.508,0.928,2.508,2.783
			C449.331,378.902,449.055,379.134,448.506,379.134z M446.69,376.65c-0.295,0-0.582,0.138-0.857,0.413
			c-0.276,0.275-0.422,0.618-0.438,1.026h2.891C448.239,377.129,447.706,376.65,446.69,376.65z"/>
	</g>
</g>
<g>
	<circle fill="#FFFFFF" stroke="#000000" stroke-miterlimit="10" cx="136.119" cy="147.494" r="26.994"/>
	<g>
		<path d="M124.167,146.674h1.812c0.144-0.008,0.264,0.044,0.36,0.156c0.096,0.112,0.144,0.244,0.144,0.396
			c0,0.32-0.168,0.484-0.504,0.492h-1.812c0.016,1.104,0.02,1.948,0.012,2.532s-0.012,0.884-0.012,0.9c0,0.208-0.05,0.348-0.15,0.42
			c-0.1,0.072-0.234,0.108-0.402,0.108c-0.16,0-0.282-0.058-0.366-0.174c-0.084-0.116-0.126-0.242-0.126-0.378v-6.648
			c0-0.696,0.336-1.044,1.008-1.044h2.808c0.16,0,0.294,0.052,0.402,0.156s0.162,0.232,0.162,0.384c0,0.336-0.188,0.504-0.564,0.504
			h-2.772V146.674z"/>
		<path d="M133.251,151.306c0,0.184-0.168,0.275-0.504,0.275c-0.352,0-0.528-0.1-0.528-0.299v-4.405h-1.128
			c-0.28,0-0.42-0.148-0.42-0.444c0-0.176,0.038-0.32,0.114-0.432c0.076-0.112,0.178-0.168,0.306-0.168h1.476
			c0.304,0,0.496,0.044,0.576,0.132c0.08,0.088,0.12,0.208,0.12,0.359v5.005L133.251,151.306z M132.471,144.91
			c-0.2,0-0.374-0.074-0.522-0.222c-0.148-0.148-0.222-0.318-0.222-0.51c0-0.2,0.074-0.372,0.222-0.516s0.322-0.216,0.522-0.216
			c0.192,0,0.36,0.072,0.504,0.216s0.216,0.316,0.216,0.516C133.191,144.666,132.951,144.91,132.471,144.91z"/>
		<path d="M139.245,143.242c0.356,0,0.534,0.116,0.534,0.347v5.811c0,0.791,0.186,1.186,0.558,1.186c0.372,0,0.562,0,0.57,0
			c0.112,0,0.21,0.045,0.294,0.134s0.122,0.214,0.114,0.376c-0.016,0.356-0.18,0.534-0.492,0.534h-0.42
			c-0.489,0-0.883-0.152-1.183-0.456c-0.324-0.288-0.485-0.848-0.485-1.68c0,0.488,0-1.48,0-5.904
			C138.735,143.358,138.904,143.242,139.245,143.242z"/>
		<path d="M148.506,149.134h-3.117c0.032,0.912,0.569,1.368,1.612,1.368c0.326,0,0.619-0.02,0.877-0.06
			c0.259-0.04,0.611-0.164,1.057-0.372c0.175-0.024,0.303,0.063,0.382,0.259c0.08,0.197-0.012,0.422-0.275,0.676
			c-0.47,0.36-1.182,0.54-2.138,0.54c-0.9,0-1.577-0.3-2.03-0.9c-0.406-0.536-0.609-1.224-0.609-2.064
			c0-0.888,0.23-1.592,0.692-2.112c0.478-0.544,1.099-0.816,1.863-0.816c1.672,0,2.508,0.928,2.508,2.784
			C149.331,148.902,149.056,149.134,148.506,149.134z M146.69,146.649c-0.296,0-0.582,0.138-0.858,0.414
			c-0.276,0.275-0.422,0.618-0.438,1.027h2.892C148.238,147.129,147.706,146.649,146.69,146.649z"/>
	</g>
</g>
<g>
	<circle fill="#FFFFFF" stroke="#000000" stroke-miterlimit="10" cx="236.12" cy="227.494" r="26.994"/>
	<g>
		<path d="M231.512,230.982c0,0.44-0.124,0.66-0.372,0.66c-0.232,0-0.468-0.212-0.708-0.636l-3.072-5.976v6.108
			c0,0.32-0.172,0.48-0.516,0.48c-0.128,0-0.248-0.041-0.36-0.12c-0.112-0.079-0.168-0.18-0.168-0.3v-7.035
			c0-0.136,0.024-0.265,0.072-0.389c0.048-0.124,0.128-0.213,0.24-0.27c0.176-0.056,0.4-0.08,0.672-0.072
			c0.272-0.01,0.576,0.286,0.912,0.888l2.256,4.392v-4.824c0-0.144,0.058-0.274,0.174-0.39c0.116-0.116,0.246-0.174,0.39-0.174
			c0.32,0,0.48,0.18,0.48,0.54v7.165V230.982z"/>
		<path d="M237.563,231.15c-0.418,0.272-0.903,0.408-1.456,0.408c-0.408,0-0.84-0.068-1.296-0.204
			c-0.584-0.2-0.876-0.464-0.876-0.792c0-0.128,0.05-0.242,0.15-0.342s0.214-0.15,0.342-0.15c0.056,0,0.292,0.08,0.708,0.24
			c0.416,0.16,0.756,0.24,1.02,0.24c0.264,0,0.5-0.053,0.708-0.156c0.264-0.128,0.396-0.316,0.396-0.564
			c0-0.312-0.196-0.527-0.588-0.647c-0.208-0.04-0.416-0.08-0.624-0.12s-0.416-0.08-0.624-0.12c-0.528-0.136-0.9-0.344-1.116-0.624
			c-0.224-0.295-0.336-0.611-0.336-0.948c0-0.496,0.216-0.896,0.648-1.2c0.384-0.288,0.836-0.432,1.356-0.432
			c0.392,0,0.8,0.06,1.224,0.18c0.576,0.16,0.864,0.376,0.864,0.648c0,0.112-0.032,0.22-0.096,0.324
			c-0.072,0.104-0.164,0.156-0.276,0.156c-0.176,0-0.444-0.06-0.804-0.18c-0.352-0.12-0.628-0.18-0.828-0.18
			c-0.28,0-0.528,0.044-0.744,0.132c-0.272,0.128-0.408,0.32-0.408,0.576c0,0.296,0.232,0.496,0.698,0.6
			c0.233,0.064,0.47,0.125,0.71,0.181s0.481,0.112,0.723,0.168c0.57,0.2,0.959,0.556,1.168,1.067
			c0.064,0.168,0.097,0.328,0.097,0.48C238.304,230.41,238.057,230.83,237.563,231.15z"/>
		<path d="M244.763,231.15c-0.418,0.272-0.903,0.408-1.456,0.408c-0.408,0-0.84-0.068-1.296-0.204
			c-0.584-0.2-0.876-0.464-0.876-0.792c0-0.128,0.05-0.242,0.15-0.342s0.214-0.15,0.342-0.15c0.056,0,0.292,0.08,0.708,0.24
			c0.416,0.16,0.756,0.24,1.02,0.24c0.264,0,0.5-0.053,0.708-0.156c0.264-0.128,0.396-0.316,0.396-0.564
			c0-0.312-0.196-0.527-0.588-0.647c-0.208-0.04-0.416-0.08-0.624-0.12s-0.416-0.08-0.624-0.12c-0.528-0.136-0.9-0.344-1.116-0.624
			c-0.224-0.295-0.336-0.611-0.336-0.948c0-0.496,0.216-0.896,0.648-1.2c0.384-0.288,0.836-0.432,1.356-0.432
			c0.392,0,0.8,0.06,1.224,0.18c0.576,0.16,0.864,0.376,0.864,0.648c0,0.112-0.032,0.22-0.096,0.324
			c-0.072,0.104-0.164,0.156-0.276,0.156c-0.176,0-0.444-0.06-0.804-0.18c-0.352-0.12-0.628-0.18-0.828-0.18
			c-0.28,0-0.528,0.044-0.744,0.132c-0.272,0.128-0.408,0.32-0.408,0.576c0,0.296,0.232,0.496,0.698,0.6
			c0.233,0.064,0.47,0.125,0.71,0.181s0.481,0.112,0.723,0.168c0.57,0.2,0.959,0.556,1.168,1.067
			c0.064,0.168,0.097,0.328,0.097,0.48C245.503,230.41,245.256,230.83,244.763,231.15z"/>
	</g>
</g>
<g>
	<circle fill="#FFFFFF" stroke="#000000" stroke-miterlimit="10" cx="336.12" cy="266.494" r="26.994"/>
	<g>
		<path d="M334.932,270.474c-0.313,0-0.563-0.096-0.75-0.288c-0.188-0.192-0.283-0.444-0.283-0.756v-5.964
			c0-0.328,0.084-0.58,0.252-0.756s0.425-0.268,0.769-0.276h2.892c0.313,0,0.469,0.177,0.469,0.528c0,0.344-0.152,0.516-0.456,0.516
			h-2.88v2.256h1.871c0.289,0,0.433,0.185,0.433,0.553c0,0.191-0.04,0.322-0.12,0.39s-0.2,0.103-0.359,0.103h-1.824v2.651h2.904
			c0.319,0.176,0.479,0.349,0.479,0.517c0,0.352-0.16,0.527-0.479,0.527H334.932z"/>
	</g>
</g>
<g>
	<circle fill="#FFFFFF" stroke="#000000" stroke-miterlimit="10" cx="336.12" cy="187.494" r="26.994"/>
	<g>
		<path d="M331.368,186.674h1.813c0.144-0.008,0.264,0.044,0.359,0.156c0.096,0.112,0.145,0.244,0.145,0.396
			c0,0.32-0.168,0.484-0.504,0.492h-1.813c0.016,1.104,0.02,1.948,0.012,2.532s-0.012,0.884-0.012,0.9c0,0.208-0.05,0.348-0.15,0.42
			c-0.1,0.072-0.233,0.108-0.401,0.108c-0.16,0-0.282-0.058-0.366-0.174c-0.084-0.116-0.126-0.242-0.126-0.378v-6.648
			c0-0.696,0.337-1.044,1.009-1.044h2.808c0.159,0,0.294,0.052,0.401,0.156c0.108,0.104,0.162,0.232,0.162,0.384
			c0,0.336-0.188,0.504-0.563,0.504h-2.772V186.674z"/>
		<path d="M341.307,189.134h-3.117c0.032,0.912,0.569,1.368,1.613,1.368c0.326,0,0.618-0.02,0.877-0.06
			c0.259-0.04,0.611-0.164,1.057-0.372c0.176-0.024,0.303,0.063,0.383,0.259s-0.012,0.422-0.275,0.676
			c-0.469,0.36-1.182,0.54-2.137,0.54c-0.9,0-1.577-0.3-2.031-0.9c-0.406-0.536-0.608-1.224-0.608-2.064
			c0-0.888,0.23-1.592,0.692-2.112c0.478-0.544,1.099-0.816,1.863-0.816c1.672,0,2.508,0.928,2.508,2.784
			C342.131,188.902,341.857,189.134,341.307,189.134z M339.492,186.649c-0.296,0-0.582,0.138-0.858,0.414
			c-0.275,0.275-0.422,0.618-0.438,1.027h2.892C341.04,187.129,340.507,186.649,339.492,186.649z"/>
	</g>
</g>
<g>
	<circle fill="#FFFFFF" stroke="#000000" stroke-miterlimit="10" cx="436.12" cy="227.494" r="26.994"/>
	<g>
		<path d="M431.512,230.982c0,0.44-0.125,0.66-0.373,0.66c-0.231,0-0.467-0.212-0.707-0.636l-3.072-5.976v6.108
			c0,0.32-0.172,0.48-0.516,0.48c-0.129,0-0.248-0.041-0.36-0.12s-0.168-0.18-0.168-0.3v-7.035c0-0.136,0.024-0.265,0.071-0.389
			c0.049-0.124,0.129-0.213,0.24-0.27c0.176-0.056,0.4-0.08,0.672-0.072c0.272-0.01,0.576,0.286,0.912,0.888l2.256,4.392v-4.824
			c0-0.144,0.059-0.274,0.174-0.39c0.117-0.116,0.246-0.174,0.391-0.174c0.32,0,0.48,0.18,0.48,0.54v7.165V230.982z"/>
		<path d="M437.563,231.15c-0.418,0.272-0.903,0.408-1.455,0.408c-0.408,0-0.84-0.068-1.297-0.204
			c-0.584-0.2-0.875-0.464-0.875-0.792c0-0.128,0.049-0.242,0.149-0.342s0.214-0.15,0.343-0.15c0.055,0,0.291,0.08,0.707,0.24
			s0.756,0.24,1.021,0.24c0.264,0,0.499-0.053,0.708-0.156c0.264-0.128,0.396-0.316,0.396-0.564c0-0.312-0.197-0.527-0.589-0.647
			c-0.208-0.04-0.416-0.08-0.624-0.12s-0.416-0.08-0.624-0.12c-0.528-0.136-0.899-0.344-1.116-0.624
			c-0.224-0.295-0.336-0.611-0.336-0.948c0-0.496,0.217-0.896,0.648-1.2c0.384-0.288,0.836-0.432,1.355-0.432
			c0.393,0,0.801,0.06,1.225,0.18c0.576,0.16,0.863,0.376,0.863,0.648c0,0.112-0.031,0.22-0.096,0.324
			c-0.072,0.104-0.164,0.156-0.275,0.156c-0.176,0-0.444-0.06-0.805-0.18c-0.352-0.12-0.628-0.18-0.828-0.18
			c-0.279,0-0.527,0.044-0.744,0.132c-0.271,0.128-0.407,0.32-0.407,0.576c0,0.296,0.232,0.496,0.698,0.6
			c0.232,0.064,0.47,0.125,0.711,0.181c0.24,0.056,0.48,0.112,0.723,0.168c0.569,0.2,0.959,0.556,1.168,1.067
			c0.064,0.168,0.096,0.328,0.096,0.48C438.303,230.41,438.057,230.83,437.563,231.15z"/>
		<path d="M444.907,229.134h-3.117c0.032,0.912,0.569,1.367,1.613,1.367c0.326,0,0.618-0.02,0.877-0.06s0.611-0.163,1.057-0.372
			c0.176-0.023,0.303,0.063,0.383,0.26s-0.012,0.422-0.275,0.676c-0.469,0.361-1.182,0.541-2.137,0.541
			c-0.9,0-1.577-0.301-2.031-0.9c-0.406-0.535-0.608-1.224-0.608-2.064c0-0.887,0.23-1.591,0.692-2.111
			c0.478-0.544,1.099-0.816,1.863-0.816c1.672,0,2.508,0.928,2.508,2.784C445.731,228.902,445.457,229.134,444.907,229.134z
			 M443.091,226.65c-0.296,0-0.582,0.138-0.858,0.414c-0.275,0.275-0.422,0.618-0.438,1.027h2.892
			C444.639,227.13,444.107,226.65,443.091,226.65z"/>
	</g>
</g>
<g>
	<circle fill="#FFFFFF" stroke="#000000" stroke-miterlimit="10" cx="236.12" cy="77.494" r="26.994"/>
	<g>
		<path d="M230.708,77.226c-0.344,1.072-0.622,1.928-0.834,2.568c-0.212,0.64-0.362,1.072-0.45,1.296
			c-0.128,0.344-0.304,0.516-0.528,0.516c-0.216,0-0.388-0.18-0.516-0.54c-0.28-0.776-0.712-2.048-1.296-3.816
			c-0.688-2.104-1.032-3.272-1.032-3.504c0.12-0.264,0.324-0.396,0.612-0.396c0.312,0,0.56,0.288,0.744,0.864l1.488,4.452
			l1.512-4.416c0.232-0.624,0.508-0.936,0.828-0.936c0.272,0,0.452,0.128,0.54,0.384C231.775,73.818,231.419,74.994,230.708,77.226z
			"/>
		<path d="M238.111,74.802c-0.064,0.048-0.144,0.06-0.24,0.036c-0.104-0.016-0.204-0.043-0.3-0.084
			c-0.096-0.04-0.192-0.088-0.288-0.144c-0.232-0.136-0.456-0.204-0.672-0.204c-0.176,0-0.304,0.051-0.384,0.154
			c-0.16,0.149-0.248,0.433-0.264,0.851c0,0.063,0,0.142,0,0.236c0,0.094-0.004,0.209-0.012,0.343h1.32
			c0.144,0,0.26,0.092,0.348,0.276c0.016,0.04,0.028,0.082,0.036,0.126c0.008,0.044,0.016,0.09,0.024,0.138
			c0.008,0.128-0.016,0.252-0.072,0.372c-0.064,0.088-0.164,0.132-0.3,0.132h-1.356v3.948c0.016,0,0.016,0.008,0,0.024
			c0.008,0.216-0.042,0.368-0.147,0.456c-0.107,0.088-0.229,0.132-0.369,0.132c-0.352-0.008-0.528-0.212-0.528-0.612v-3.948h-0.564
			c-0.128,0-0.224-0.044-0.288-0.132c-0.072-0.12-0.108-0.244-0.108-0.372s0.036-0.248,0.108-0.36c0.056-0.12,0.152-0.18,0.288-0.18
			h0.564c0.008-0.256,0.014-0.452,0.018-0.588c0.004-0.136,0.006-0.216,0.006-0.24c0-0.336,0.037-0.624,0.109-0.864
			c0.073-0.24,0.21-0.456,0.413-0.648c0.194-0.184,0.476-0.28,0.846-0.288c0.488-0.016,0.9,0.049,1.236,0.196
			c0.488,0.213,0.736,0.455,0.744,0.725C238.295,74.493,238.239,74.666,238.111,74.802z"/>
		<path d="M245.419,80.802c-0.464,0.536-1.145,0.804-2.04,0.804c-0.896,0-1.592-0.271-2.088-0.816
			c-0.472-0.536-0.708-1.256-0.708-2.16c0-0.88,0.224-1.588,0.672-2.124c0.48-0.56,1.156-0.84,2.028-0.84
			c0.904,0,1.604,0.276,2.1,0.828c0.448,0.52,0.672,1.244,0.672,2.172C246.055,79.57,245.843,80.282,245.419,80.802z
			 M244.519,77.346c-0.312-0.392-0.728-0.588-1.248-0.588c-0.504,0-0.904,0.192-1.2,0.576c-0.272,0.344-0.408,0.776-0.408,1.296
			c0,0.544,0.168,0.996,0.504,1.356c0.352,0.352,0.792,0.528,1.32,0.528c0.464,0,0.832-0.196,1.104-0.588
			c0.24-0.344,0.36-0.76,0.36-1.248C244.951,78.15,244.807,77.706,244.519,77.346z"/>
	</g>
</g>
<g>
	<circle fill="#FFFFFF" stroke="#000000" stroke-miterlimit="10" cx="236.12" cy="377.494" r="26.994"/>
	<g>
		<path d="M234.308,377.226c-0.344,1.072-0.622,1.928-0.834,2.568c-0.212,0.64-0.362,1.072-0.45,1.296
			c-0.128,0.344-0.304,0.516-0.528,0.516c-0.216,0-0.388-0.18-0.516-0.54c-0.28-0.775-0.712-2.048-1.296-3.816
			c-0.688-2.104-1.032-3.271-1.032-3.504c0.12-0.264,0.324-0.396,0.612-0.396c0.312,0,0.56,0.288,0.744,0.864l1.488,4.451
			l1.512-4.416c0.232-0.623,0.508-0.936,0.828-0.936c0.272,0,0.452,0.129,0.54,0.385
			C235.376,373.818,235.02,374.994,234.308,377.226z"/>
		<path d="M242.108,381.51c-0.056,0.079-0.19,0.12-0.403,0.12c-0.143,0-0.269-0.057-0.38-0.168
			c-0.103-0.112-0.166-0.244-0.189-0.396c-0.384,0.336-1.032,0.504-1.944,0.504c-0.76,0-1.288-0.256-1.584-0.768
			c-0.24-0.393-0.36-0.996-0.36-1.813v-2.832c0-0.136,0.056-0.254,0.168-0.354s0.236-0.15,0.372-0.15
			c0.336,0,0.504,0.137,0.504,0.407l0.012,2.957c0.016,0.566,0.084,0.945,0.204,1.138c0.176,0.246,0.528,0.37,1.056,0.37
			c0.24,0,0.552-0.067,0.936-0.203c0.44-0.167,0.66-0.347,0.66-0.538v-3.711c0-0.112,0.074-0.212,0.221-0.3
			c0.131-0.063,0.258-0.096,0.381-0.096c0.294,0,0.442,0.144,0.442,0.433v1.727c-0.016,0.393-0.024,0.732-0.024,1.021
			c0,0.28,0,0.513,0,0.696v1.548C242.18,381.318,242.156,381.455,242.108,381.51z"/>
	</g>
</g>
<g>
	<circle fill="#FFFFFF" stroke="#000000" stroke-miterlimit="10" cx="336.12" cy="77.494" r="26.994"/>
	<g>
		<path d="M327.108,77.226c-0.344,1.072-0.622,1.928-0.834,2.568c-0.212,0.64-0.362,1.072-0.45,1.296
			c-0.128,0.344-0.304,0.516-0.528,0.516c-0.216,0-0.388-0.18-0.516-0.54c-0.28-0.776-0.712-2.048-1.296-3.816
			c-0.688-2.104-1.032-3.272-1.032-3.504c0.12-0.264,0.324-0.396,0.612-0.396c0.312,0,0.56,0.288,0.744,0.864l1.488,4.452
			l1.512-4.416c0.232-0.624,0.508-0.936,0.828-0.936c0.272,0,0.452,0.128,0.54,0.384C328.176,73.818,327.82,74.994,327.108,77.226z"
			/>
		<path d="M334.511,74.802c-0.063,0.048-0.144,0.06-0.239,0.036c-0.104-0.016-0.205-0.043-0.301-0.084
			c-0.096-0.04-0.191-0.088-0.287-0.144c-0.232-0.136-0.457-0.204-0.673-0.204c-0.176,0-0.304,0.051-0.384,0.154
			c-0.16,0.149-0.248,0.433-0.264,0.851c0,0.063,0,0.142,0,0.236c0,0.094-0.004,0.209-0.012,0.343h1.319
			c0.144,0,0.26,0.092,0.349,0.276c0.016,0.04,0.027,0.082,0.035,0.126s0.016,0.09,0.024,0.138c0.008,0.128-0.017,0.252-0.072,0.372
			c-0.063,0.088-0.164,0.132-0.3,0.132h-1.355v3.948c0.016,0,0.016,0.008,0,0.024c0.008,0.216-0.042,0.368-0.148,0.456
			c-0.106,0.088-0.229,0.132-0.368,0.132c-0.353-0.008-0.528-0.212-0.528-0.612v-3.948h-0.563c-0.128,0-0.224-0.044-0.288-0.132
			c-0.072-0.12-0.107-0.244-0.107-0.372s0.035-0.248,0.107-0.36c0.056-0.12,0.152-0.18,0.288-0.18h0.563
			c0.008-0.256,0.014-0.452,0.019-0.588c0.004-0.136,0.006-0.216,0.006-0.24c0-0.336,0.036-0.624,0.109-0.864
			c0.073-0.24,0.21-0.456,0.413-0.648c0.193-0.184,0.476-0.28,0.846-0.288c0.488-0.016,0.9,0.049,1.236,0.196
			c0.487,0.213,0.735,0.455,0.743,0.725C334.696,74.493,334.639,74.666,334.511,74.802z"/>
		<path d="M341.819,80.802c-0.464,0.536-1.145,0.804-2.039,0.804c-0.896,0-1.593-0.271-2.089-0.816
			c-0.472-0.536-0.708-1.256-0.708-2.16c0-0.88,0.225-1.588,0.672-2.124c0.48-0.56,1.156-0.84,2.028-0.84
			c0.903,0,1.604,0.276,2.101,0.828c0.447,0.52,0.672,1.244,0.672,2.172C342.456,79.57,342.243,80.282,341.819,80.802z
			 M340.918,77.346c-0.312-0.392-0.728-0.588-1.248-0.588c-0.504,0-0.903,0.192-1.199,0.576c-0.271,0.344-0.408,0.776-0.408,1.296
			c0,0.544,0.168,0.996,0.504,1.356c0.352,0.352,0.793,0.528,1.32,0.528c0.464,0,0.832-0.196,1.104-0.588
			c0.24-0.344,0.36-0.76,0.36-1.248C341.351,78.149,341.208,77.706,340.918,77.346z"/>
		<path d="M349.787,78.125h-3.516c0.521,0.408,0.78,0.744,0.78,1.008c0,0.104-0.043,0.188-0.127,0.252s-0.178,0.096-0.281,0.096
			c-0.064,0-0.32-0.176-0.768-0.528c-0.488-0.392-0.773-0.608-0.853-0.648c-0.136-0.048-0.271-0.096-0.402-0.144
			s-0.266-0.096-0.401-0.144c-0.424-0.16-0.637-0.292-0.637-0.396c0-0.128,0.217-0.26,0.648-0.396c0.136-0.04,0.275-0.08,0.42-0.12
			c0.145-0.04,0.283-0.08,0.42-0.12c0.191-0.096,0.504-0.344,0.936-0.744c0.368-0.344,0.648-0.54,0.84-0.588
			c0.08,0.048,0.145,0.172,0.193,0.372c-0.145,0.448-0.4,0.8-0.769,1.056h3.552c0.288,0,0.432,0.18,0.432,0.54
			S350.098,78.149,349.787,78.125z"/>
	</g>
</g>
<g>
	<g>
		<line fill="none" stroke="#000000" stroke-miterlimit="10" x1="17.064" y1="227.494" x2="103.156" y2="227.494"/>
		<g>
			<polygon points="100.347,231.197 101.92,227.494 100.347,223.791 109.125,227.494 			"/>
		</g>
	</g>
</g>
<g>
	<g>
		<line fill="none" stroke="#000000" stroke-miterlimit="10" x1="136.12" y1="200.5" x2="136.119" y2="180.458"/>
		<g>
			<polygon points="139.822,183.266 136.119,181.693 132.416,183.266 136.119,174.488 			"/>
		</g>
	</g>
</g>
<g>
	<g>
		<line fill="none" stroke="#000000" stroke-miterlimit="10" x1="163.114" y1="227.494" x2="203.156" y2="227.494"/>
		<g>
			<polygon points="200.347,231.197 201.92,227.494 200.347,223.791 209.125,227.494 			"/>
		</g>
	</g>
</g>
<g>
	<g>
		<path fill="none" stroke="#000000" stroke-miterlimit="10" d="M136.119,120.5c0,0-20.208-35.184,0-35.184
			c15.258,0,7.475,20.059,2.746,29.885"/>
		<g>
			<polygon points="136.802,110.997 139.388,114.079 143.402,114.356 136.119,120.5 			"/>
		</g>
	</g>
</g>
<g>
	<g>
		<line fill="none" stroke="#000000" stroke-miterlimit="10" x1="163.113" y1="147.494" x2="231.289" y2="196.992"/>
		<g>
			<polygon points="226.84,198.339 230.289,196.267 231.192,192.345 236.12,200.5 			"/>
		</g>
	</g>
</g>
<g>
	<g>
		<line fill="none" stroke="#000000" stroke-miterlimit="10" x1="263.114" y1="227.494" x2="305.17" y2="263.015"/>
		<g>
			<polygon points="300.635,264.032 304.226,262.217 305.414,258.374 309.73,266.867 			"/>
		</g>
	</g>
</g>
<g>
	<g>
		<line fill="none" stroke="#000000" stroke-miterlimit="10" x1="263.114" y1="227.494" x2="305.756" y2="200.038"/>
		<g>
			<polygon points="305.399,204.672 304.717,200.707 301.39,198.445 310.775,196.806 			"/>
		</g>
	</g>
</g>
<g>
	<g>
		<path fill="none" stroke="#000000" stroke-miterlimit="10" d="M249.392,203.991c0,0,6.936-35.693,19.819-23.503
			c9.433,8.924-5.569,17.379-14.284,21.268"/>
		<g>
			<polygon points="256.072,197.198 256.043,201.221 258.919,204.035 249.392,203.991 			"/>
		</g>
	</g>
</g>
<g>
	<g>
		<line fill="none" stroke="#000000" stroke-miterlimit="10" x1="263.114" y1="227.494" x2="403.156" y2="227.494"/>
		<g>
			<polygon points="400.347,231.197 401.92,227.494 400.347,223.791 409.125,227.494 			"/>
		</g>
	</g>
</g>
<g>
	<g>
		<line fill="none" stroke="#000000" stroke-miterlimit="10" x1="236.12" y1="254.488" x2="236.119" y2="344.53"/>
		<g>
			<polygon points="232.416,341.721 236.119,343.294 239.822,341.721 236.119,350.5 			"/>
		</g>
	</g>
</g>
<g>
	<g>
		<line fill="none" stroke="#000000" stroke-miterlimit="10" x1="236.12" y1="200.5" x2="236.119" y2="110.458"/>
		<g>
			<polygon points="239.822,113.266 236.119,111.693 232.416,113.266 236.119,104.488 			"/>
		</g>
	</g>
</g>
<g>
	<g>
		<line fill="none" stroke="#000000" stroke-miterlimit="10" x1="310.775" y1="275.805" x2="265.457" y2="239.364"/>
		<g>
			<polygon points="269.966,238.238 266.419,240.137 265.325,244.009 260.805,235.623 			"/>
		</g>
	</g>
</g>
<g>
	<g>
		<path fill="none" stroke="#000000" stroke-miterlimit="10" d="M359.948,279.984c0,0,38.212-6.331,28.824,13.586
			c-7.017,14.888-19.648-0.071-25.581-8.576"/>
		<g>
			<polygon points="367.877,285.264 363.921,285.995 361.7,289.349 359.948,279.984 			"/>
		</g>
	</g>
</g>
<g>
	<g>
		<line fill="none" stroke="#000000" stroke-miterlimit="10" x1="363.114" y1="266.494" x2="409.056" y2="246.097"/>
		<g>
			<polygon points="407.992,250.622 407.927,246.599 404.987,243.853 414.512,243.675 			"/>
		</g>
	</g>
</g>
<g>
	<g>
		<line fill="none" stroke="#000000" stroke-miterlimit="10" x1="309.125" y1="187.494" x2="265.92" y2="213.493"/>
		<g>
			<polygon points="266.417,208.872 266.978,212.856 270.235,215.218 260.805,216.571 			"/>
		</g>
	</g>
</g>
<g>
	<g>
		<line fill="none" stroke="#000000" stroke-miterlimit="10" x1="363.114" y1="187.494" x2="411.376" y2="206.335"/>
		<g>
			<polygon points="407.413,208.764 410.225,205.886 410.107,201.864 416.937,208.506 			"/>
		</g>
	</g>
</g>
<g>
	<g>
		<line fill="none" stroke="#000000" stroke-miterlimit="10" x1="242.815" y1="103.649" x2="242.394" y2="195.265"/>
		<g>
			<polygon points="238.704,192.439 242.4,194.029 246.11,192.473 242.367,201.234 			"/>
		</g>
	</g>
</g>
<g>
	<g>
		<line fill="none" stroke="#000000" stroke-miterlimit="10" x1="263.114" y1="77.494" x2="303.156" y2="77.494"/>
		<g>
			<polygon points="300.347,81.197 301.92,77.494 300.347,73.791 309.125,77.494 			"/>
		</g>
	</g>
</g>
<g>
	<g>
		<line fill="none" stroke="#000000" stroke-miterlimit="10" x1="258.432" y1="92.687" x2="431.016" y2="197.404"/>
		<g>
			<polygon points="426.694,199.113 429.959,196.763 430.536,192.781 436.12,200.5 			"/>
		</g>
	</g>
</g>
<g>
	<g>
		<line fill="none" stroke="#000000" stroke-miterlimit="10" x1="263.114" y1="377.494" x2="303.156" y2="377.494"/>
		<g>
			<polygon points="300.347,381.197 301.92,377.494 300.347,373.791 309.125,377.494 			"/>
		</g>
	</g>
</g>
<g>
	<g>
		<line fill="none" stroke="#000000" stroke-miterlimit="10" x1="463.114" y1="227.494" x2="503.156" y2="227.494"/>
		<g>
			<polygon points="500.347,231.197 501.92,227.494 500.347,223.791 509.125,227.494 			"/>
		</g>
	</g>
</g>
<g>
	<g>
		<path fill="none" stroke="#000000" stroke-miterlimit="10" d="M455.302,208.506c0,0,4.707-28.445,16.363-17.536
			c8.166,7.644-3.142,13.184-10.646,15.817"/>
		<g>
			<polygon points="462.567,202.342 462.176,206.347 464.787,209.408 455.302,208.506 			"/>
		</g>
	</g>
</g>
<g>
	<g>
		<line fill="none" stroke="#000000" stroke-miterlimit="10" x1="563.114" y1="227.494" x2="608.027" y2="227.494"/>
		<g>
			<polygon points="605.218,231.197 606.792,227.494 605.218,223.791 613.997,227.494 			"/>
		</g>
	</g>
</g>
<g>
	<g>
		<line fill="none" stroke="#000000" stroke-miterlimit="10" x1="363.114" y1="77.494" x2="405.084" y2="31.886"/>
		<g>
			<polygon points="405.907,36.46 404.248,32.795 400.458,31.445 409.126,27.493 			"/>
		</g>
	</g>
</g>
<g>
	<g>
		<path fill="none" stroke="#000000" stroke-miterlimit="10" d="M336.12,50.5c0,0-17.755-25.92,0-25.92
			c12.699,0,7.232,13.26,3.089,20.812"/>
		<g>
			<polygon points="337.375,41.055 339.771,44.288 343.76,44.809 336.12,50.5 			"/>
		</g>
	</g>
</g>
<g>
	<g>
		<line fill="none" stroke="#000000" stroke-miterlimit="10" x1="363.114" y1="377.494" x2="403.156" y2="377.494"/>
		<g>
			<polygon points="400.347,381.197 401.92,377.494 400.347,373.791 409.125,377.494 			"/>
		</g>
	</g>
</g>
<g>
	<g>
		<polyline fill="none" stroke="#000000" stroke-miterlimit="10" points="336.12,404.488 336.12,424.58 0.5,424.58 0.5,77.494 
			203.156,77.494 		"/>
		<g>
			<polygon points="200.347,81.197 201.92,77.494 200.347,73.791 209.125,77.494 			"/>
		</g>
	</g>
</g>
<g>
	<g>
		<line fill="none" stroke="#000000" stroke-miterlimit="10" x1="310.775" y1="368.182" x2="266.774" y2="368.182"/>
		<g>
			<polygon points="269.583,364.479 268.01,368.182 269.583,371.885 260.805,368.182 			"/>
		</g>
	</g>
</g>
<g>
	<g>
		<path fill="none" stroke="#000000" stroke-miterlimit="10" d="M436.12,100.5c0,0-13.46-18.574,0-19.026
			c8.919-0.3,6.019,8.151,3.046,13.888"/>
		<g>
			<polygon points="437.317,91.048 439.732,94.266 443.725,94.761 436.12,100.5 			"/>
		</g>
	</g>
</g>
<g>
	<g>
		<line fill="none" stroke="#000000" stroke-miterlimit="10" x1="436.12" y1="154.487" x2="436.12" y2="194.531"/>
		<g>
			<polygon points="432.417,191.722 436.12,193.295 439.823,191.722 436.12,200.5 			"/>
		</g>
	</g>
</g>
<g>
	<g>
		<line fill="none" stroke="#000000" stroke-miterlimit="10" x1="409.125" y1="24.58" x2="363.217" y2="58.73"/>
		<g>
			<polygon points="363.26,54.083 364.208,57.993 367.681,60.025 358.427,62.293 			"/>
		</g>
	</g>
</g>
<g>
	<g>
		<line fill="none" stroke="#000000" stroke-miterlimit="10" x1="414.512" y1="361.312" x2="241.241" y2="257.555"/>
		<g>
			<polygon points="245.553,255.821 242.301,258.189 241.749,262.174 236.12,254.488 			"/>
		</g>
	</g>
</g>
<g>
	<g>
		<line fill="none" stroke="#000000" stroke-miterlimit="10" x1="436.12" y1="350.5" x2="436.12" y2="260.457"/>
		<g>
			<polygon points="439.823,263.265 436.12,261.692 432.417,263.265 436.12,254.487 			"/>
		</g>
	</g>
</g>
<g>
	<g>
		<line fill="none" stroke="#000000" stroke-miterlimit="10" x1="363.114" y1="77.494" x2="411.764" y2="105.526"/>
		<g>
			<polygon points="407.482,107.333 410.694,104.909 411.18,100.915 416.937,108.506 			"/>
		</g>
	</g>
</g>
<g>
	<g>
		<path fill="none" stroke="#000000" stroke-miterlimit="10" d="M409.126,127.493l-83.811,0c0,0-1.751-6.975-9.479-6.994
			s-9.203,6.994-9.203,6.994h-57.85"/>
		<g>
			<polygon points="251.593,123.791 250.02,127.494 251.593,131.197 242.815,127.494 			"/>
		</g>
	</g>
</g>
<g>
</g>
<g>
</g>
<g>
</g>
<g>
</g>
<g>
</g>
<g>
</g>
<g>
</g>
</svg>
