<?xml version="1.0" encoding="utf-8"?>
<!-- Generator: Adobe Illustrator 16.0.3, SVG Export Plug-In . SVG Version: 6.00 Build 0)  -->
<!DOCTYPE svg PUBLIC "-//W3C//DTD SVG 1.1//EN" "http://www.w3.org/Graphics/SVG/1.1/DTD/svg11.dtd">
<svg version="1.1" id="Layer_1" xmlns="http://www.w3.org/2000/svg" xmlns:xlink="http://www.w3.org/1999/xlink" x="0px" y="0px"
	 width="396.333px" height="339.631px" viewBox="0 0 396.333 339.631" enable-background="new 0 0 396.333 339.631"
	 xml:space="preserve">
<g>
	<circle fill="#FFFFFF" stroke="#000000" stroke-miterlimit="10" cx="216.651" cy="114.583" r="26.994"/>
	<g>
		<path d="M219.242,118.072c0,0.44-0.124,0.66-0.372,0.66c-0.232,0-0.468-0.212-0.708-0.636l-3.072-5.976v6.108
			c0,0.32-0.172,0.48-0.516,0.48c-0.128,0-0.248-0.04-0.36-0.12c-0.112-0.08-0.168-0.18-0.168-0.299v-7.035
			c0-0.136,0.024-0.265,0.072-0.389c0.048-0.124,0.128-0.213,0.24-0.27c0.176-0.056,0.4-0.08,0.672-0.072
			c0.272-0.01,0.576,0.286,0.912,0.888l2.256,4.392v-4.824c0-0.144,0.058-0.274,0.174-0.39c0.116-0.116,0.246-0.174,0.39-0.174
			c0.32,0,0.48,0.18,0.48,0.54v7.164V118.072z"/>
	</g>
</g>
<g>
	<circle fill="#FFFFFF" stroke="#000000" stroke-miterlimit="10" cx="268.74" cy="47.246" r="26.994"/>
	<g>
		<path d="M266.927,46.978c-0.344,1.072-0.622,1.928-0.834,2.568c-0.212,0.64-0.362,1.072-0.45,1.296
			c-0.128,0.344-0.304,0.516-0.528,0.516c-0.216,0-0.388-0.18-0.516-0.54c-0.28-0.776-0.712-2.048-1.296-3.816
			c-0.688-2.104-1.032-3.272-1.032-3.504c0.12-0.264,0.324-0.396,0.612-0.396c0.312,0,0.56,0.288,0.744,0.864l1.488,4.452
			l1.512-4.416c0.232-0.624,0.508-0.936,0.828-0.936c0.272,0,0.452,0.128,0.54,0.384C267.995,43.57,267.639,44.746,266.927,46.978z"
			/>
		<path d="M273.695,50.95c-0.552,0.232-1.016,0.348-1.392,0.348c-0.608,0-1.132-0.136-1.572-0.408
			c-0.504-0.32-0.756-0.776-0.756-1.368c0-0.616,0.28-1.108,0.84-1.476c0.488-0.32,1.06-0.48,1.716-0.48
			c0.192,0,0.39,0.014,0.594,0.042c0.204,0.028,0.417,0.07,0.642,0.126c0-0.64-0.144-1.084-0.432-1.332
			c-0.216-0.12-0.484-0.184-0.804-0.192c-0.304,0.008-0.728,0.052-1.272,0.132c-0.432,0.296-0.684,0.444-0.756,0.444
			c-0.192,0-0.288-0.188-0.288-0.564c0-0.272,0.316-0.536,0.948-0.792c0.464-0.12,0.908-0.18,1.332-0.18
			c0.488,0,0.952,0.112,1.392,0.336c0.536,0.352,0.804,0.756,0.804,1.212l-0.012,4.164c0,0.256-0.16,0.384-0.48,0.384
			C273.887,51.346,273.719,51.214,273.695,50.95z M273.731,48.694c-0.224-0.056-0.434-0.096-0.63-0.12
			c-0.196-0.024-0.374-0.036-0.534-0.036c-0.44,0-0.82,0.086-1.14,0.258c-0.32,0.172-0.52,0.426-0.6,0.762
			c0.08,0.288,0.258,0.486,0.534,0.594c0.276,0.108,0.546,0.162,0.81,0.162c0.448,0,0.968-0.144,1.56-0.432V48.694z"/>
	</g>
</g>
<g>
	<circle fill="#FFFFFF" stroke="#000000" stroke-miterlimit="10" cx="268.74" cy="298.484" r="26.994"/>
	<g>
		<path d="M260.387,297.664h1.812c0.144-0.008,0.264,0.045,0.36,0.156c0.096,0.112,0.144,0.244,0.144,0.396
			c0,0.32-0.168,0.484-0.504,0.492h-1.812c0.016,1.104,0.02,1.947,0.012,2.531s-0.012,0.885-0.012,0.9c0,0.208-0.05,0.348-0.15,0.42
			s-0.234,0.107-0.402,0.107c-0.16,0-0.282-0.058-0.366-0.174c-0.084-0.115-0.126-0.242-0.126-0.378v-6.647
			c0-0.696,0.336-1.045,1.008-1.045h2.808c0.16,0,0.294,0.053,0.402,0.156c0.108,0.104,0.162,0.232,0.162,0.385
			c0,0.336-0.188,0.504-0.564,0.504h-2.772V297.664z"/>
		<path d="M278.53,301.972c0,0.439-0.124,0.66-0.372,0.66c-0.232,0-0.468-0.213-0.708-0.637l-3.072-5.976v6.108
			c0,0.319-0.172,0.479-0.516,0.479c-0.128,0-0.248-0.04-0.36-0.12c-0.112-0.079-0.168-0.18-0.168-0.299v-7.035
			c0-0.136,0.024-0.266,0.072-0.389c0.048-0.123,0.128-0.213,0.24-0.27c0.176-0.056,0.4-0.08,0.672-0.072
			c0.272-0.01,0.576,0.286,0.912,0.889l2.256,4.393v-4.824c0-0.145,0.058-0.274,0.174-0.391c0.116-0.115,0.246-0.174,0.39-0.174
			c0.32,0,0.48,0.18,0.48,0.54v7.164V301.972z"/>
	</g>
</g>
<g>
	<circle fill="#FFFFFF" stroke="#000000" stroke-miterlimit="10" cx="321.64" cy="114.583" r="26.994"/>
	<g>
		<path d="M309.686,113.764h1.813c0.144-0.008,0.264,0.044,0.359,0.156c0.096,0.112,0.145,0.244,0.145,0.396
			c0,0.32-0.168,0.484-0.504,0.492h-1.813c0.016,1.104,0.02,1.948,0.012,2.532s-0.012,0.884-0.012,0.9c0,0.208-0.05,0.348-0.15,0.42
			c-0.1,0.072-0.233,0.108-0.401,0.108c-0.16,0-0.282-0.058-0.366-0.174c-0.084-0.116-0.126-0.242-0.126-0.378v-6.648
			c0-0.696,0.336-1.044,1.009-1.044h2.808c0.159,0,0.294,0.052,0.401,0.156c0.108,0.104,0.162,0.232,0.162,0.384
			c0,0.336-0.188,0.504-0.563,0.504h-2.772V113.764z"/>
		<path d="M327.025,114.316c-0.344,1.072-0.622,1.928-0.834,2.568c-0.213,0.64-0.362,1.072-0.45,1.296
			c-0.128,0.344-0.304,0.516-0.528,0.516c-0.216,0-0.388-0.18-0.516-0.54c-0.28-0.776-0.713-2.048-1.296-3.816
			c-0.688-2.104-1.032-3.272-1.032-3.504c0.12-0.264,0.324-0.396,0.612-0.396c0.312,0,0.56,0.288,0.743,0.864l1.488,4.452
			l1.512-4.416c0.232-0.624,0.508-0.936,0.828-0.936c0.272,0,0.452,0.128,0.541,0.384
			C328.094,110.908,327.737,112.084,327.025,114.316z"/>
		<path d="M333.829,118.276v-3.42c0-0.376-0.072-0.644-0.216-0.804c-0.152-0.176-0.412-0.264-0.78-0.264
			c-0.408,0-0.808,0.16-1.2,0.48c-0.408,0.328-0.611,0.692-0.611,1.092v2.868c0.008,0.304-0.16,0.456-0.504,0.456
			c-0.129,0-0.251-0.046-0.367-0.138c-0.115-0.092-0.174-0.202-0.174-0.33v-4.932c0-0.136,0.072-0.26,0.215-0.372
			c0.128-0.096,0.264-0.144,0.406-0.144c0.176,0,0.303,0.088,0.383,0.264c0.023,0.08,0.047,0.16,0.071,0.24s0.052,0.16,0.083,0.24
			V113.5c0.104-0.144,0.354-0.3,0.753-0.468c0.39-0.16,0.677-0.24,0.86-0.24c0.756,0,1.309,0.192,1.659,0.576
			c0.311,0.352,0.466,0.92,0.466,1.704v3.204c0,0.256-0.172,0.384-0.516,0.384C334.005,118.66,333.829,118.532,333.829,118.276z"/>
	</g>
</g>
<g>
	<circle fill="#FFFFFF" stroke="#000000" stroke-miterlimit="10" cx="132.829" cy="212.332" r="26.994"/>
	<g>
		<path d="M127.416,212.064c-0.344,1.072-0.622,1.928-0.834,2.568c-0.212,0.64-0.362,1.072-0.45,1.296
			c-0.128,0.344-0.304,0.516-0.528,0.516c-0.216,0-0.388-0.18-0.516-0.54c-0.28-0.775-0.712-2.048-1.296-3.816
			c-0.688-2.104-1.032-3.271-1.032-3.504c0.12-0.264,0.324-0.396,0.612-0.396c0.312,0,0.56,0.288,0.744,0.864l1.488,4.451
			l1.512-4.416c0.232-0.623,0.508-0.936,0.828-0.936c0.272,0,0.452,0.129,0.54,0.385
			C128.484,208.656,128.128,209.832,127.416,212.064z"/>
		<path d="M134.076,208.272h-1.848v8.437h1.848c0.264,0,0.4,0.168,0.408,0.504c-0.008,0.384-0.144,0.576-0.408,0.576
			c-0.84,0.008-1.34,0.012-1.5,0.012c-0.16,0-0.28-0.004-0.36-0.012c-0.464,0.008-0.752-0.041-0.864-0.145
			c-0.144-0.105-0.2-0.418-0.168-0.939c-0.032,0-0.04-0.074-0.024-0.223c0.016-0.148,0.024-3,0.024-8.556
			c0-0.185,0.046-0.347,0.138-0.487c0.092-0.141,0.242-0.211,0.45-0.211h2.304c0.296,0,0.444,0.174,0.444,0.521
			C134.52,208.098,134.372,208.272,134.076,208.272z"/>
		<path d="M138.335,207.75c0-0.348,0.148-0.521,0.444-0.521h2.304c0.208,0,0.358,0.07,0.45,0.211s0.138,0.303,0.138,0.487
			c0,5.556,0.008,8.407,0.024,8.556s0.008,0.223-0.024,0.223c0.032,0.521-0.024,0.834-0.168,0.939
			c-0.112,0.104-0.4,0.152-0.864,0.145c-0.08,0.008-0.2,0.012-0.36,0.012c-0.16,0-0.66-0.004-1.5-0.012
			c-0.264,0-0.4-0.192-0.408-0.576c0.008-0.336,0.144-0.504,0.408-0.504h1.848v-8.437h-1.848
			C138.483,208.272,138.335,208.098,138.335,207.75z"/>
	</g>
</g>
<g>
	<circle fill="#FFFFFF" stroke="#000000" stroke-miterlimit="10" cx="46.24" cy="212.332" r="26.994"/>
	<g>
		<path d="M40.827,212.064c-0.344,1.072-0.622,1.928-0.834,2.568c-0.212,0.64-0.362,1.072-0.45,1.296
			c-0.128,0.344-0.304,0.516-0.528,0.516c-0.216,0-0.388-0.18-0.516-0.54c-0.28-0.775-0.712-2.048-1.296-3.816
			c-0.688-2.104-1.032-3.271-1.032-3.504c0.12-0.264,0.324-0.396,0.612-0.396c0.312,0,0.56,0.288,0.744,0.864l1.488,4.451
			l1.512-4.416c0.232-0.623,0.508-0.936,0.828-0.936c0.272,0,0.452,0.129,0.54,0.385C41.895,208.656,41.539,209.832,40.827,212.064z
			"/>
		<path d="M47.486,208.272h-1.848v8.437h1.848c0.264,0,0.4,0.168,0.408,0.504c-0.008,0.384-0.144,0.576-0.408,0.576
			c-0.84,0.008-1.34,0.012-1.5,0.012c-0.16,0-0.28-0.004-0.36-0.012c-0.464,0.008-0.752-0.041-0.864-0.145
			c-0.144-0.105-0.2-0.418-0.168-0.939c-0.032,0-0.04-0.074-0.024-0.223c0.016-0.148,0.024-3,0.024-8.556
			c0-0.185,0.046-0.347,0.138-0.487c0.092-0.141,0.242-0.211,0.45-0.211h2.304c0.296,0,0.444,0.174,0.444,0.521
			C47.93,208.098,47.782,208.272,47.486,208.272z"/>
		<path d="M52.25,216.312c-0.312,0-0.562-0.096-0.75-0.288s-0.282-0.444-0.282-0.756v-5.964c0-0.328,0.084-0.58,0.252-0.756
			s0.424-0.268,0.768-0.276h2.892c0.312,0,0.468,0.177,0.468,0.528c0,0.344-0.152,0.516-0.456,0.516h-2.88v2.256h1.872
			c0.288,0,0.432,0.185,0.432,0.553c0,0.191-0.04,0.322-0.12,0.39s-0.2,0.103-0.36,0.103h-1.824v2.651h2.904
			c0.32,0.176,0.48,0.349,0.48,0.517c0,0.352-0.16,0.527-0.48,0.527H52.25z"/>
	</g>
</g>
<g>
	<circle fill="#FFFFFF" stroke="#000000" stroke-miterlimit="10" cx="46.238" cy="132.298" r="26.994"/>
	<g>
		<path d="M44.425,132.031c-0.344,1.072-0.622,1.928-0.834,2.568c-0.212,0.64-0.362,1.072-0.45,1.296
			c-0.128,0.344-0.304,0.516-0.528,0.516c-0.216,0-0.388-0.18-0.516-0.54c-0.28-0.776-0.712-2.048-1.296-3.816
			c-0.688-2.104-1.032-3.272-1.032-3.504c0.12-0.264,0.324-0.396,0.612-0.396c0.312,0,0.56,0.288,0.744,0.864l1.488,4.452
			l1.512-4.416c0.232-0.624,0.508-0.936,0.828-0.936c0.272,0,0.452,0.128,0.54,0.384C45.493,128.623,45.137,129.799,44.425,132.031z
			"/>
		<path d="M51.085,128.239h-1.848v8.436h1.848c0.264,0,0.4,0.168,0.408,0.504c-0.008,0.384-0.144,0.576-0.408,0.576
			c-0.84,0.008-1.34,0.012-1.5,0.012c-0.16,0-0.28-0.004-0.36-0.012c-0.464,0.008-0.752-0.041-0.864-0.145
			c-0.144-0.104-0.2-0.417-0.168-0.939c-0.032,0-0.04-0.074-0.024-0.223c0.016-0.148,0.024-3,0.024-8.555
			c0-0.184,0.046-0.347,0.138-0.487c0.092-0.141,0.242-0.211,0.45-0.211h2.304c0.296,0,0.444,0.174,0.444,0.522
			S51.381,128.239,51.085,128.239z"/>
	</g>
</g>
<g>
	<circle fill="#FFFFFF" stroke="#000000" stroke-miterlimit="10" cx="321.638" cy="230.663" r="26.994"/>
	<g>
		<path d="M313.284,229.843h1.812c0.145-0.008,0.264,0.045,0.36,0.156c0.096,0.112,0.144,0.244,0.144,0.396
			c0,0.32-0.168,0.484-0.504,0.492h-1.812c0.016,1.104,0.02,1.947,0.012,2.531s-0.012,0.885-0.012,0.9c0,0.208-0.05,0.348-0.15,0.42
			s-0.233,0.107-0.401,0.107c-0.16,0-0.283-0.058-0.367-0.174c-0.084-0.115-0.125-0.242-0.125-0.378v-6.647
			c0-0.696,0.336-1.045,1.008-1.045h2.809c0.159,0,0.293,0.053,0.401,0.156c0.108,0.104,0.162,0.232,0.162,0.385
			c0,0.336-0.188,0.504-0.563,0.504h-2.772V229.843z"/>
		<path d="M330.623,230.396c-0.344,1.072-0.621,1.928-0.834,2.567c-0.212,0.64-0.361,1.072-0.449,1.296
			c-0.129,0.344-0.305,0.516-0.528,0.516c-0.216,0-0.388-0.18-0.517-0.539c-0.279-0.776-0.712-2.049-1.295-3.816
			c-0.689-2.104-1.033-3.271-1.033-3.504c0.121-0.264,0.324-0.396,0.613-0.396c0.311,0,0.559,0.289,0.743,0.865l1.488,4.451
			l1.512-4.416c0.231-0.624,0.508-0.936,0.828-0.936c0.272,0,0.452,0.128,0.54,0.384
			C331.691,226.988,331.336,228.164,330.623,230.396z"/>
	</g>
</g>
<g>
	<circle fill="#FFFFFF" stroke="#000000" stroke-miterlimit="10" cx="216.651" cy="230.663" r="26.994"/>
	<g>
		<path d="M214.604,233.902c-0.348-0.494-0.522-0.993-0.522-1.496v-5.408c0-0.15,0.014-0.263,0.042-0.334
			c0.028-0.072,0.066-0.12,0.114-0.145c0.048-0.023,0.108-0.031,0.18-0.023c0.072,0.008,0.152,0.012,0.24,0.012
			c0.312,0,0.468,0.164,0.468,0.49v5.071c0,0.558,0.13,0.965,0.39,1.22c0.26,0.256,0.626,0.383,1.098,0.383
			c0.52,0,0.91-0.104,1.17-0.311s0.39-0.639,0.39-1.292v-4.999c0-0.119,0.044-0.241,0.132-0.365
			c0.088-0.123,0.192-0.186,0.312-0.186c0.16,0,0.3,0.049,0.42,0.145c0.12,0.096,0.18,0.219,0.18,0.371v5.371
			c0,1.492-0.864,2.238-2.592,2.238C215.625,234.644,214.952,234.396,214.604,233.902z"/>
	</g>
</g>
<g>
	<circle fill="#FFFFFF" stroke="#000000" stroke-miterlimit="10" cx="132.828" cy="132.298" r="26.994"/>
	<g>
		<path d="M127.415,132.031c-0.344,1.072-0.622,1.928-0.834,2.568c-0.212,0.64-0.362,1.072-0.45,1.296
			c-0.128,0.344-0.304,0.516-0.528,0.516c-0.216,0-0.388-0.18-0.516-0.54c-0.28-0.776-0.712-2.048-1.296-3.816
			c-0.688-2.104-1.032-3.272-1.032-3.504c0.12-0.264,0.324-0.396,0.612-0.396c0.312,0,0.56,0.288,0.744,0.864l1.488,4.452
			l1.512-4.416c0.232-0.624,0.508-0.936,0.828-0.936c0.272,0,0.452,0.128,0.54,0.384
			C128.482,128.623,128.126,129.799,127.415,132.031z"/>
		<path d="M134.218,135.991v-3.42c0-0.376-0.072-0.644-0.216-0.804c-0.152-0.176-0.412-0.264-0.78-0.264
			c-0.408,0-0.808,0.16-1.2,0.48c-0.408,0.328-0.612,0.692-0.612,1.092v2.868c0.008,0.304-0.16,0.456-0.504,0.456
			c-0.128,0-0.25-0.046-0.366-0.138c-0.116-0.092-0.174-0.202-0.174-0.33v-4.932c0-0.136,0.071-0.26,0.215-0.372
			c0.127-0.096,0.263-0.144,0.406-0.144c0.175,0,0.302,0.088,0.382,0.264c0.024,0.08,0.048,0.16,0.072,0.24s0.052,0.16,0.083,0.24
			v-0.012c0.104-0.144,0.354-0.3,0.752-0.468c0.39-0.16,0.677-0.24,0.86-0.24c0.756,0,1.31,0.192,1.66,0.576
			c0.311,0.352,0.466,0.92,0.466,1.704v3.204c0,0.256-0.172,0.384-0.516,0.384C134.394,136.375,134.218,136.247,134.218,135.991z"/>
		<path d="M141.382,136.003c-0.552,0.232-1.016,0.348-1.392,0.348c-0.608,0-1.132-0.136-1.572-0.408
			c-0.504-0.32-0.756-0.776-0.756-1.368c0-0.616,0.28-1.108,0.84-1.476c0.488-0.32,1.06-0.48,1.716-0.48
			c0.192,0,0.39,0.014,0.594,0.042c0.204,0.028,0.417,0.07,0.642,0.126c0-0.64-0.144-1.084-0.432-1.332
			c-0.216-0.12-0.484-0.184-0.804-0.192c-0.304,0.008-0.728,0.052-1.272,0.132c-0.432,0.296-0.684,0.444-0.756,0.444
			c-0.192,0-0.288-0.188-0.288-0.564c0-0.272,0.316-0.536,0.948-0.792c0.464-0.12,0.908-0.18,1.332-0.18
			c0.488,0,0.952,0.112,1.392,0.336c0.536,0.352,0.804,0.756,0.804,1.212l-0.012,4.164c0,0.256-0.16,0.384-0.48,0.384
			C141.574,136.399,141.406,136.267,141.382,136.003z M141.418,133.747c-0.224-0.056-0.434-0.096-0.63-0.12
			c-0.196-0.024-0.374-0.036-0.534-0.036c-0.44,0-0.82,0.086-1.14,0.258c-0.32,0.172-0.52,0.426-0.6,0.762
			c0.08,0.288,0.258,0.486,0.534,0.594c0.276,0.108,0.546,0.162,0.81,0.162c0.448,0,0.968-0.144,1.56-0.432V133.747z"/>
	</g>
</g>
<g>
	<circle fill="#FFFFFF" stroke="#000000" stroke-miterlimit="10" cx="268.74" cy="173.831" r="26.994"/>
	<g>
		<path d="M267.587,173.011h1.812c0.144-0.008,0.264,0.044,0.36,0.156c0.096,0.112,0.144,0.244,0.144,0.396
			c0,0.32-0.168,0.484-0.504,0.492h-1.812c0.016,1.104,0.02,1.948,0.012,2.532s-0.012,0.884-0.012,0.9c0,0.208-0.05,0.348-0.15,0.42
			c-0.1,0.072-0.234,0.108-0.402,0.108c-0.16,0-0.282-0.058-0.366-0.174c-0.084-0.116-0.126-0.242-0.126-0.378v-6.648
			c0-0.696,0.336-1.044,1.008-1.044h2.808c0.16,0,0.294,0.052,0.402,0.156s0.162,0.232,0.162,0.384c0,0.336-0.188,0.504-0.564,0.504
			h-2.772V173.011z"/>
	</g>
</g>
<g>
	<g>
		<line fill="none" stroke="#000000" stroke-miterlimit="10" x1="216.65" y1="173.83" x2="235.776" y2="173.831"/>
		<g>
			<polygon points="232.968,177.534 234.541,173.831 232.968,170.127 241.746,173.831 			"/>
		</g>
	</g>
</g>
<g>
	<g>
		<line fill="none" stroke="#000000" stroke-miterlimit="10" x1="216.65" y1="64.497" x2="216.649" y2="81.62"/>
		<g>
			<polygon points="212.946,78.812 216.649,80.385 220.353,78.812 216.649,87.59 			"/>
		</g>
	</g>
</g>
<g>
	<g>
		<line fill="none" stroke="#000000" stroke-miterlimit="10" x1="83.5" y1="132.298" x2="99.864" y2="132.298"/>
		<g>
			<polygon points="97.055,136.001 98.628,132.298 97.055,128.595 105.833,132.298 			"/>
		</g>
	</g>
</g>
<g>
	<g>
		<line fill="none" stroke="#000000" stroke-miterlimit="10" x1="268.739" y1="0" x2="268.738" y2="14.282"/>
		<g>
			<polygon points="265.035,11.473 268.738,13.046 272.441,11.473 268.738,20.251 			"/>
		</g>
	</g>
</g>
<g>
	<path fill="#FFFFFF" d="M295.734,173.831c0,0,21.099-11.802,21.099,0S295.734,173.831,295.734,173.831z"/>
	<g>
		<path fill="none" stroke="#000000" stroke-miterlimit="10" d="M295.734,173.831c0,0,21.099-11.802,21.099,0
			c0,7.903-9.462,5.221-15.713,2.587"/>
		<g>
			<polygon points="305.254,174.203 302.258,176.888 302.111,180.909 295.734,173.831 			"/>
		</g>
	</g>
</g>
<g>
	<g>
		<line fill="none" stroke="#000000" stroke-miterlimit="10" x1="262.862" y1="200.175" x2="262.862" y2="266.256"/>
		<g>
			<polygon points="259.159,263.448 262.862,265.021 266.565,263.448 262.862,272.226 			"/>
		</g>
	</g>
</g>
<g>
	<g>
		<line fill="none" stroke="#000000" stroke-miterlimit="10" x1="288.458" y1="192.257" x2="299.964" y2="205.834"/>
		<g>
			<polygon points="295.323,206.086 299.165,204.892 300.973,201.298 303.823,210.389 			"/>
		</g>
	</g>
</g>
<g>
	<g>
		<line fill="none" stroke="#000000" stroke-miterlimit="10" x1="285.684" y1="152.822" x2="298.696" y2="138.24"/>
		<g>
			<polygon points="299.589,142.801 297.874,139.162 294.063,137.87 302.67,133.786 			"/>
		</g>
	</g>
</g>
<g>
	<g>
		<line fill="none" stroke="#000000" stroke-miterlimit="10" x1="249.021" y1="192.257" x2="238.202" y2="205.734"/>
		<g>
			<polygon points="237.072,201.226 238.975,204.771 242.848,205.863 234.464,210.389 			"/>
		</g>
	</g>
</g>
<g>
	<g>
		<line fill="none" stroke="#000000" stroke-miterlimit="10" x1="237.014" y1="132.298" x2="249.759" y2="146.924"/>
		<g>
			<polygon points="245.122,147.239 248.947,145.992 250.705,142.374 253.681,151.424 			"/>
		</g>
	</g>
</g>
<g>
	<g>
		<path fill="none" stroke="#000000" stroke-miterlimit="10" d="M195.699,96.403c0,0-5.608-18.992-12.082-12.956
			c-4.07,3.795,1.755,7.94,6.641,10.495"/>
		<g>
			<polygon points="186.179,96.037 189.173,93.35 189.318,89.329 195.699,96.403 			"/>
		</g>
	</g>
</g>
<g>
	<g>
		<line fill="none" stroke="#000000" stroke-miterlimit="10" x1="189.657" y1="114.583" x2="172.772" y2="114.583"/>
		<g>
			<polygon points="175.581,110.88 174.008,114.583 175.581,118.287 166.803,114.583 			"/>
		</g>
	</g>
</g>
<g>
	<g>
		<line fill="none" stroke="#000000" stroke-miterlimit="10" x1="132.826" y1="105.304" x2="132.826" y2="93.559"/>
		<g>
			<polygon points="136.529,96.368 132.826,94.794 129.123,96.368 132.826,87.589 			"/>
		</g>
	</g>
</g>
<g>
	<g>
		<line fill="none" stroke="#000000" stroke-miterlimit="10" x1="295.734" y1="47.246" x2="310.863" y2="47.246"/>
		<g>
			<polygon points="308.055,50.949 309.628,47.246 308.055,43.542 316.833,47.246 			"/>
		</g>
	</g>
</g>
<g>
	<g>
		<line fill="none" stroke="#000000" stroke-miterlimit="10" x1="321.636" y1="87.643" x2="321.636" y2="72.414"/>
		<g>
			<polygon points="325.339,75.222 321.636,73.649 317.933,75.222 321.636,66.444 			"/>
		</g>
	</g>
</g>
<g>
	<g>
		<line fill="none" stroke="#000000" stroke-miterlimit="10" x1="268.738" y1="325.478" x2="268.738" y2="333.662"/>
		<g>
			<polygon points="265.035,330.853 268.738,332.426 272.441,330.853 268.738,339.631 			"/>
		</g>
	</g>
</g>
<g>
	<g>
		<line fill="none" stroke="#000000" stroke-miterlimit="10" x1="348.632" y1="230.663" x2="366.197" y2="230.663"/>
		<g>
			<polygon points="363.389,234.366 364.962,230.663 363.389,226.959 372.167,230.663 			"/>
		</g>
	</g>
</g>
<g>
	<g>
		<line fill="none" stroke="#000000" stroke-miterlimit="10" x1="268.738" y1="74.24" x2="268.738" y2="140.866"/>
		<g>
			<polygon points="265.035,138.058 268.738,139.631 272.441,138.058 268.738,146.836 			"/>
		</g>
	</g>
</g>
<g>
	<g>
		<polyline fill="none" stroke="#000000" stroke-miterlimit="10" points="241.746,47.246 46.24,47.246 46.237,99.334 		"/>
		<g>
			<polygon points="42.534,96.526 46.237,98.099 49.94,96.526 46.236,105.304 			"/>
		</g>
	</g>
</g>
<g>
	<g>
		<line fill="none" stroke="#000000" stroke-miterlimit="10" x1="251.284" y1="67.829" x2="237.665" y2="89.269"/>
		<g>
			<polygon points="236.045,84.912 238.328,88.226 242.297,88.883 234.464,94.308 			"/>
		</g>
	</g>
</g>
<g>
	<g>
		<line fill="none" stroke="#000000" stroke-miterlimit="10" x1="158.895" y1="139.315" x2="239.547" y2="158.954"/>
		<g>
			<polygon points="235.942,161.887 238.347,158.662 237.694,154.691 245.347,160.366 			"/>
		</g>
	</g>
</g>
<g>
	<g>
		<line fill="none" stroke="#000000" stroke-miterlimit="10" x1="159.472" y1="127.969" x2="187.313" y2="127.969"/>
		<g>
			<polygon points="184.504,131.672 186.077,127.969 184.504,124.266 193.282,127.969 			"/>
		</g>
	</g>
</g>
<g>
	<g>
		<line fill="none" stroke="#000000" stroke-miterlimit="10" x1="229.198" y1="206.761" x2="241.536" y2="191.89"/>
		<g>
			<polygon points="242.592,196.416 240.747,192.84 236.893,191.687 245.347,187.295 			"/>
		</g>
	</g>
</g>
<g>
	<g>
		<line fill="none" stroke="#000000" stroke-miterlimit="10" x1="272.526" y1="271.759" x2="272.526" y2="206.488"/>
		<g>
			<polygon points="276.229,209.296 272.526,207.722 268.823,209.296 272.526,200.518 			"/>
		</g>
	</g>
</g>
<g>
	<g>
		<path fill="none" stroke="#000000" stroke-miterlimit="10" d="M241.746,298.484c0,0-20.913-9.814-20.913,0
			c0,6.5,9.173,4.391,15.369,2.224"/>
		<g>
			<polygon points="234.925,305.136 235.038,301.114 232.222,298.241 241.746,298.484 			"/>
		</g>
	</g>
</g>
<g>
	<g>
		<line fill="none" stroke="#000000" stroke-miterlimit="10" x1="311.095" y1="205.805" x2="297.095" y2="189.828"/>
		<g>
			<polygon points="301.731,189.5 297.909,190.756 296.161,194.38 293.161,185.337 			"/>
		</g>
	</g>
</g>
<g>
	<g>
		<line fill="none" stroke="#000000" stroke-miterlimit="10" x1="303.823" y1="250.936" x2="287.048" y2="271.124"/>
		<g>
			<polygon points="285.995,266.597 287.837,270.173 291.691,271.331 283.232,275.715 			"/>
		</g>
	</g>
</g>
<g>
	<g>
		<line fill="none" stroke="#000000" stroke-miterlimit="10" x1="306.284" y1="136.782" x2="293.45" y2="152.145"/>
		<g>
			<polygon points="292.408,147.616 294.242,151.197 298.092,152.364 289.623,156.727 			"/>
		</g>
	</g>
</g>
<g>
	<g>
		<polyline fill="none" stroke="#000000" stroke-miterlimit="10" points="348.634,114.583 395.833,114.583 395.833,298.484 
			301.704,298.484 		"/>
		<g>
			<polygon points="304.513,294.781 302.939,298.484 304.513,302.187 295.734,298.484 			"/>
		</g>
	</g>
</g>
<g>
	<g>
		<line fill="none" stroke="#000000" stroke-miterlimit="10" x1="46.236" y1="159.292" x2="46.236" y2="179.368"/>
		<g>
			<polygon points="42.533,176.559 46.236,178.132 49.939,176.559 46.236,185.337 			"/>
		</g>
	</g>
</g>
<g>
	<g>
		<line fill="none" stroke="#000000" stroke-miterlimit="10" x1="132.827" y1="239.326" x2="132.827" y2="251.687"/>
		<g>
			<polygon points="129.124,248.878 132.827,250.452 136.53,248.878 132.827,257.657 			"/>
		</g>
	</g>
</g>
<g>
	<g>
		<line fill="none" stroke="#000000" stroke-miterlimit="10" x1="66.753" y1="149.841" x2="110.311" y2="188.306"/>
		<g>
			<polygon points="105.754,189.223 109.384,187.488 110.656,183.671 114.785,192.257 			"/>
		</g>
	</g>
</g>
<g>
	<g>
		<path fill="none" stroke="#000000" stroke-miterlimit="10" d="M19.244,132.298c0,0-18.744-12-18.744,0
			c0,7.815,7.952,5.45,13.497,2.851"/>
		<g>
			<polygon points="13.221,139.68 12.877,135.671 9.753,133.136 19.244,132.298 			"/>
		</g>
	</g>
</g>
<g>
	<g>
		<line fill="none" stroke="#000000" stroke-miterlimit="10" x1="73.234" y1="212.332" x2="99.865" y2="212.332"/>
		<g>
			<polygon points="97.057,216.035 98.63,212.332 97.057,208.628 105.835,212.332 			"/>
		</g>
	</g>
</g>
<g>
	<g>
		<line fill="none" stroke="#000000" stroke-miterlimit="10" x1="52.159" y1="185.997" x2="52.159" y2="164.601"/>
		<g>
			<polygon points="55.862,167.41 52.159,165.836 48.456,167.41 52.159,158.631 			"/>
		</g>
	</g>
</g>
<g>
	<g>
		<line fill="none" stroke="#000000" stroke-miterlimit="10" x1="158.895" y1="205.309" x2="237.13" y2="183.181"/>
		<g>
			<polygon points="235.435,187.509 235.941,183.518 233.419,180.382 242.874,181.557 			"/>
		</g>
	</g>
</g>
<g>
	<g>
		<line fill="none" stroke="#000000" stroke-miterlimit="10" x1="110.594" y1="197.028" x2="68.103" y2="156.92"/>
		<g>
			<polygon points="72.688,156.155 69.001,157.768 67.604,161.541 63.762,152.822 			"/>
		</g>
	</g>
</g>
<g>
	<g>
		<line fill="none" stroke="#000000" stroke-miterlimit="10" x1="153.505" y1="229.68" x2="240.234" y2="281.939"/>
		<g>
			<polygon points="235.917,283.662 239.176,281.301 239.739,277.318 245.347,285.02 			"/>
		</g>
	</g>
</g>
<g>
	<g>
		<line fill="none" stroke="#000000" stroke-miterlimit="10" x1="171.167" y1="230.663" x2="183.688" y2="230.663"/>
		<g>
			<polygon points="180.879,234.366 182.452,230.663 180.879,226.959 189.657,230.663 			"/>
		</g>
	</g>
</g>
<g>
	<g>
		<line fill="none" stroke="#000000" stroke-miterlimit="10" x1="132.827" y1="185.337" x2="132.827" y2="165.262"/>
		<g>
			<polygon points="136.53,168.071 132.827,166.498 129.124,168.071 132.827,159.292 			"/>
		</g>
	</g>
</g>
<g>
	<g>
		<line fill="none" stroke="#000000" stroke-miterlimit="10" x1="159.823" y1="212.332" x2="187.374" y2="216.304"/>
		<g>
			<polygon points="184.065,219.569 186.151,216.128 185.123,212.239 193.282,217.157 			"/>
		</g>
	</g>
</g>
<g>
</g>
<g>
</g>
<g>
</g>
<g>
</g>
<g>
</g>
<g>
</g>
<g>
</g>
</svg>
